<?xml version="1.0" encoding="UTF-8"?>
<svg width="665px" height="206px" viewBox="0 0 665 206" version="1.1" xmlns="http://www.w3.org/2000/svg" xmlns:xlink="http://www.w3.org/1999/xlink">
    <!-- Generator: Sketch 46.2 (44496) - http://www.bohemiancoding.com/sketch -->
    <title>Kynavnraftlogo</title>
    <desc>Created with Sketch.</desc>
    <defs>
        <linearGradient x1="-50.1289063%" y1="55.9912109%" x2="138.320312%" y2="54.7089844%" id="linearGradient-1">
            <stop stop-color="#2E903B" offset="0%"></stop>
            <stop stop-color="#3FB34F" offset="100%"></stop>
        </linearGradient>
        <linearGradient x1="41.6386719%" y1="15.0607639%" x2="71.1171875%" y2="61.6736779%" id="linearGradient-2">
            <stop stop-color="#2E903B" offset="0%"></stop>
            <stop stop-color="#3FB34F" offset="100%"></stop>
        </linearGradient>
        <linearGradient x1="51.5858109%" y1="142.218339%" x2="50%" y2="0%" id="linearGradient-3">
            <stop stop-color="#2E903B" offset="0%"></stop>
            <stop stop-color="#3FB34F" offset="100%"></stop>
        </linearGradient>
    </defs>
    <g id="Page-1" stroke="none" stroke-width="1" fill="none" fill-rule="evenodd">
        <g id="Kynavn">
            <g id="Group-3">
                <g id="Group">
                    <polygon id="Path" fill="url(#linearGradient-1)" points="0 33.76 31 12 31 140 0 140"></polygon>
                    <path d="M2.10169492,15.1688415 L2.10169492,11.9237288 L0,10.5 L15.5,0 L31,10.5 L15.5,21 L3.15254237,12.6355932 L3.15254237,15.1688415 C3.76476209,15.3905996 4.20338983,15.9889591 4.20338983,16.6923077 C4.20338983,17.58446 3.49766918,18.3076923 2.62711864,18.3076923 C1.75656811,18.3076923 1.05084746,17.58446 1.05084746,16.6923077 C1.05084746,15.9889591 1.48947519,15.3905996 2.10169492,15.1688415 Z" id="Combined-Shape" fill="#3FB34F"></path>
                    <polygon id="Path-4" fill="url(#linearGradient-1)" points="39 94.5263158 69.0412371 140 101 140 60.7319588 80"></polygon>
                    <polygon id="Path-3" fill="url(#linearGradient-2)" points="31 68.3760684 95 26 95 57.6239316 31 100"></polygon>
                </g>
                <path d="M207.762143,26 L169.327857,96.1914286 L169.327857,140 L140.176429,140 L140.176429,96.5171429 L101.742143,26 L134.476429,26 L154.670714,68.18 L175.027857,26 L207.762143,26 Z M284.704,26 L313.692571,26 L313.692571,140 L291.218286,140 L250.992571,82.6742857 L250.992571,140 L221.841143,140 L221.841143,26 L244.478286,26 L284.704,83.3257143 L284.704,26 Z M406.431571,140 L401.545857,123.551429 L363.600143,123.551429 L358.714428,140 L327.120143,140 L364.740143,26 L400.243,26 L437.863,140 L406.431571,140 Z M371.091571,98.4714286 L394.054428,98.4714286 L382.491571,59.7114286 L371.091571,98.4714286 Z" id="YNA" fill="url(#linearGradient-3)"></path>
                <g id="Group-2" transform="translate(452.500000, 26.000000)" fill="url(#linearGradient-3)">
                    <path d="M13.8333333,111.833333 C12.3888817,113.277785 10.6111217,114 8.5,114 C6.38887833,114 4.61111833,113.277785 3.16666667,111.833333 C1.722215,110.388882 1,108.611122 1,106.5 C1,104.388878 1.722215,102.611118 3.16666667,101.166667 C4.61111833,99.722215 6.38887833,99 8.5,99 C10.6111217,99 12.3888817,99.722215 13.8333333,101.166667 C15.277785,102.611118 16,104.388878 16,106.5 C16,108.611122 15.277785,110.388882 13.8333333,111.833333 Z" id="."></path>
                    <path d="M45.5742857,117 L6,3 L26.52,3 L56.8114286,94.3628571 L87.2657143,3 L107.622857,3 L68.0485714,117 L45.5742857,117 Z M193.359,3 L212.087571,3 L212.087571,117 L197.430429,117 L143.687571,39.6428571 L143.687571,117 L124.959,117 L124.959,3 L139.616143,3 L193.359,80.3571429 L193.359,3 Z" id="VN"></path>
                </g>
            </g>
            <path d="M22.5934315,160.439411 L26.1079653,160.439411 L26.1079653,195.584749 L22.5934315,195.584749 L22.5934315,179.166855 L3.51453379,179.166855 L3.51453379,195.584749 L0,195.584749 L0,160.439411 L3.51453379,160.439411 L3.51453379,175.853152 L22.5934315,175.853152 L22.5934315,160.439411 Z M46.9441299,203.969422 C46.475523,204.438029 45.9065089,204.672329 45.2370706,204.672329 C44.5676322,204.672329 43.9986182,204.438029 43.5300113,203.969422 C43.0614045,203.500816 42.8271046,202.931802 42.8271046,202.262363 C42.8271046,201.592925 43.0614045,201.023911 43.5300113,200.555304 C43.9986182,200.086697 44.5676322,199.852397 45.2370706,199.852397 C45.9065089,199.852397 46.475523,200.086697 46.9441299,200.555304 C47.4127367,201.023911 47.6470366,201.592925 47.6470366,202.262363 C47.6470366,202.931802 47.4127367,203.500816 46.9441299,203.969422 Z M54.6761042,192.421669 C52.0987665,194.932062 48.9859249,196.18724 45.3374858,196.18724 C41.622103,196.18724 38.4925256,194.932062 35.9486599,192.421669 C33.4047941,189.877803 32.1328803,186.748225 32.1328803,183.032843 C32.1328803,179.31746 33.4047941,176.204618 35.9486599,173.694224 C38.4925256,171.150358 41.622103,169.878445 45.3374858,169.878445 C49.0193968,169.878445 52.1322384,171.150358 54.6761042,173.694224 C57.2534419,176.204618 58.5420914,179.31746 58.5420914,183.032843 C58.5420914,186.714754 57.2534419,189.844331 54.6761042,192.421669 Z M38.3084183,190.112118 C40.2163176,192.020017 42.5593167,192.973952 45.3374858,192.973952 C48.115655,192.973952 50.4586541,192.020017 52.3665534,190.112118 C54.2744527,188.170747 55.2283881,185.811012 55.2283881,183.032843 C55.2283881,180.254673 54.2744527,177.911674 52.3665534,176.003775 C50.4586541,174.062404 48.115655,173.091733 45.3374858,173.091733 C42.5593167,173.091733 40.2163176,174.062404 38.3084183,176.003775 C36.400519,177.911674 35.4465836,180.254673 35.4465836,183.032843 C35.4465836,185.811012 36.400519,188.170747 38.3084183,190.112118 Z M75.7633069,196.18724 C71.9809802,196.18724 68.8346671,194.932062 66.3242733,192.421669 C63.8138795,189.877803 62.5587014,186.748225 62.5587014,183.032843 C62.5587014,179.31746 63.8138795,176.204618 66.3242733,173.694224 C68.8346671,171.150358 71.9809802,169.878445 75.7633069,169.878445 C78.2737007,169.878445 80.5079177,170.472562 82.4660249,171.660815 C84.4241321,172.849068 85.8550351,174.447329 86.7587769,176.455644 L84.0475651,178.01208 C83.3781268,176.505844 82.3070415,175.309241 80.8342771,174.422235 C79.3615127,173.535229 77.6712062,173.091733 75.7633069,173.091733 C72.9851377,173.091733 70.6421386,174.062404 68.7342393,176.003775 C66.82634,177.911674 65.8724047,180.254673 65.8724047,183.032843 C65.8724047,185.811012 66.82634,188.170747 68.7342393,190.112118 C70.6421386,192.020017 72.9851377,192.973952 75.7633069,192.973952 C77.6712062,192.973952 79.3531449,192.530456 80.8091733,191.64345 C82.2652017,190.756445 83.4115977,189.559841 84.2483956,188.053605 L87.009815,189.660249 C85.9721856,191.668564 84.4492362,193.258456 82.4409211,194.429974 C80.432606,195.601491 78.2067569,196.18724 75.7633069,196.18724 Z M133.903737,190.91544 C130.389186,194.429991 126.088109,196.18724 121.000378,196.18724 C115.912646,196.18724 111.611569,194.429991 108.097018,190.91544 C104.582466,187.367417 102.825217,183.06634 102.825217,178.01208 C102.825217,172.95782 104.582466,168.673479 108.097018,165.158928 C111.611569,161.610905 115.912646,159.83692 121.000378,159.83692 C126.088109,159.83692 130.389186,161.610905 133.903737,165.158928 C137.418289,168.673479 139.175538,172.95782 139.175538,178.01208 C139.175538,183.06634 137.418289,187.367417 133.903737,190.91544 Z M110.557191,188.505474 C113.368832,191.350587 116.84986,192.773122 121.000378,192.773122 C125.150895,192.773122 128.631923,191.350587 131.443564,188.505474 C134.255205,185.660361 135.661004,182.162598 135.661004,178.01208 C135.661004,173.928506 134.255205,170.447479 131.443564,167.568894 C128.631923,164.690309 125.150895,163.251038 121.000378,163.251038 C116.84986,163.251038 113.368832,164.690309 110.557191,167.568894 C107.74555,170.447479 106.339751,173.928506 106.339751,178.01208 C106.339751,182.162598 107.74555,185.660361 110.557191,188.505474 Z M156.446961,169.878445 C159.492906,169.878445 161.89448,170.807276 163.651755,172.664968 C165.409031,174.522659 166.287656,177.024648 166.287656,180.171008 L166.287656,195.584749 L162.973952,195.584749 L162.973952,180.171008 C162.973952,177.928389 162.388203,176.187876 161.216686,174.949415 C160.045168,173.710954 158.354862,173.091733 156.145715,173.091733 C153.735737,173.091733 151.777659,173.84484 150.271423,175.351076 C148.765187,176.857312 148.01208,179.217047 148.01208,182.430351 L148.01208,195.584749 L144.698377,195.584749 L144.698377,170.480936 L148.01208,170.480936 L148.01208,174.397131 C149.853036,171.384658 152.664634,169.878445 156.446961,169.878445 Z M172.714232,195.584749 L172.714232,158.933182 L176.027935,158.933182 L176.027935,195.584749 L172.714232,195.584749 Z M186.420914,166.112873 C185.952307,166.58148 185.383293,166.81578 184.713854,166.81578 C184.044416,166.81578 183.475402,166.58148 183.006795,166.112873 C182.538188,165.644266 182.303888,165.075252 182.303888,164.405814 C182.303888,163.736375 182.538188,163.167361 183.006795,162.698754 C183.475402,162.230147 184.044416,161.995847 184.713854,161.995847 C185.383293,161.995847 185.952307,162.230147 186.420914,162.698754 C186.88952,163.167361 187.12382,163.736375 187.12382,164.405814 C187.12382,165.075252 186.88952,165.644266 186.420914,166.112873 Z M183.057003,195.584749 L183.057003,170.480936 L186.370706,170.480936 L186.370706,195.584749 L183.057003,195.584749 Z M205.148358,169.878445 C208.194302,169.878445 210.595876,170.807276 212.353152,172.664968 C214.110428,174.522659 214.989052,177.024648 214.989052,180.171008 L214.989052,195.584749 L211.675349,195.584749 L211.675349,180.171008 C211.675349,177.928389 211.089599,176.187876 209.918082,174.949415 C208.746565,173.710954 207.056259,173.091733 204.847112,173.091733 C202.437134,173.091733 200.479056,173.84484 198.97282,175.351076 C197.466584,176.857312 196.713477,179.217047 196.713477,182.430351 L196.713477,195.584749 L193.399773,195.584749 L193.399773,170.480936 L196.713477,170.480936 L196.713477,174.397131 C198.554432,171.384658 201.366031,169.878445 205.148358,169.878445 Z M233.01359,169.878445 C236.762445,169.878445 239.758137,171.200566 242.000755,173.844847 C244.310317,176.455657 245.465081,179.551763 245.465081,183.133258 C245.465081,183.300617 245.456713,183.518182 245.439977,183.785957 C245.423241,184.053732 245.398138,184.354975 245.364666,184.689694 L223.323518,184.689694 C223.658237,187.23356 224.729323,189.250213 226.536806,190.739713 C228.34429,192.229213 230.60361,192.973952 233.314836,192.973952 C235.222735,192.973952 236.871202,192.580663 238.260287,191.794073 C239.649371,191.007483 240.695353,189.978237 241.398263,188.706304 L244.310306,190.413364 C243.205732,192.220847 241.699519,193.635014 239.791619,194.655908 C237.88372,195.676801 235.708078,196.18724 233.264628,196.18724 C229.314942,196.18724 226.101686,194.948798 223.624764,192.471876 C221.147842,189.994954 219.9094,186.848641 219.9094,183.032843 C219.9094,179.250516 221.131106,176.120939 223.574556,173.644017 C226.018006,171.133623 229.164319,169.878445 233.01359,169.878445 Z M233.01359,173.091733 C231.708185,173.091733 230.503214,173.292561 229.398641,173.694224 C228.294068,174.095887 227.315029,174.664901 226.461495,175.401284 C225.607961,176.137666 224.913429,177.024658 224.377878,178.062288 C223.842328,179.099917 223.490878,180.237945 223.323518,181.476406 L242.050963,181.476406 C241.682772,178.798653 240.661893,176.740161 238.988297,175.300868 C237.247758,173.828104 235.256209,173.091733 233.01359,173.091733 Z M280.208758,196.18724 C274.853251,196.18724 270.45176,194.429991 267.004153,190.91544 C263.523073,187.367417 261.782559,183.06634 261.782559,178.01208 C261.782559,172.95782 263.523073,168.656744 267.004153,165.10872 C270.45176,161.594169 274.853251,159.83692 280.208758,159.83692 C281.81541,159.83692 283.380199,160.037748 284.903171,160.439411 C286.426143,160.841074 287.840311,161.418456 289.145715,162.171574 C290.45112,162.924692 291.639355,163.836788 292.710457,164.90789 C293.781558,165.978991 294.685286,167.167226 295.421669,168.472631 L292.308796,170.280106 C291.739773,169.209004 291.036873,168.238333 290.200076,167.368063 C289.363278,166.497794 288.426078,165.761422 287.388448,165.158928 C286.350819,164.556433 285.221159,164.087834 283.999434,163.753114 C282.777709,163.418395 281.514163,163.251038 280.208758,163.251038 C275.790465,163.251038 272.209023,164.673573 269.464326,167.518686 C266.686157,170.397271 265.297093,173.895034 265.297093,178.01208 C265.297093,182.129126 266.686157,185.626889 269.464326,188.505474 C272.209023,191.350587 275.790465,192.773122 280.208758,192.773122 C281.514163,192.773122 282.777709,192.605765 283.999434,192.271046 C285.221159,191.936327 286.350819,191.467727 287.388448,190.865232 C288.426078,190.262738 289.363278,189.526367 290.200076,188.656097 C291.036873,187.785827 291.739773,186.815156 292.308796,185.744054 L295.421669,187.501321 C294.718758,188.806726 293.831766,189.994961 292.760664,191.066063 C291.689563,192.137164 290.49296,193.04926 289.170819,193.802378 C287.848678,194.555496 286.426143,195.141246 284.903171,195.559645 C283.380199,195.978044 281.81541,196.18724 280.208758,196.18724 Z M313.797659,166.966402 L310.584371,166.966402 L305.764439,160.439411 L309.781049,160.439411 L313.797659,166.966402 Z M318.366553,170.480936 L321.680257,170.480936 L321.680257,195.584749 L318.366553,195.584749 L318.366553,191.668554 C316.492126,194.681027 313.680527,196.18724 309.931672,196.18724 C306.885728,196.18724 304.484154,195.258409 302.726878,193.400717 C300.969602,191.543026 300.090978,189.041038 300.090978,185.894677 L300.090978,170.480936 L303.404681,170.480936 L303.404681,185.894677 C303.404681,188.137296 303.990431,189.877809 305.161948,191.11627 C306.333465,192.354731 308.023772,192.973952 310.232918,192.973952 C312.642896,192.973952 314.600974,192.220846 316.10721,190.714609 C317.613447,189.208373 318.366553,186.848638 318.366553,183.635334 L318.366553,170.480936 Z M340.457909,169.878445 C343.503853,169.878445 345.905427,170.807276 347.662703,172.664968 C349.419979,174.522659 350.298603,177.024648 350.298603,180.171008 L350.298603,195.584749 L346.9849,195.584749 L346.9849,180.171008 C346.9849,177.928389 346.39915,176.187876 345.227633,174.949415 C344.056116,173.710954 342.365809,173.091733 340.156663,173.091733 C337.746685,173.091733 335.788607,173.84484 334.282371,175.351076 C332.776134,176.857312 332.023028,179.217047 332.023028,182.430351 L332.023028,195.584749 L328.709324,195.584749 L328.709324,170.480936 L332.023028,170.480936 L332.023028,174.397131 C333.863983,171.384658 336.675582,169.878445 340.457909,169.878445 Z M378.314458,170.480936 L381.628162,170.480936 L381.628162,194.580596 C381.628162,198.195564 380.389719,201.040634 377.912797,203.115893 C375.435875,205.191152 372.473655,206.228766 369.026048,206.228766 C363.168462,206.228766 359.202099,204.187009 357.12684,200.103435 L360.038883,198.446584 C361.545119,201.492528 364.540811,203.015478 369.026048,203.015478 C371.938104,203.015478 374.214161,202.262371 375.854285,200.756134 C377.494409,199.249898 378.314458,197.191406 378.314458,194.580596 L378.314458,190.664402 C376.004896,194.346313 372.624283,196.18724 368.172518,196.18724 C364.591023,196.18724 361.528388,194.915327 358.984522,192.371461 C356.474129,189.827595 355.218951,186.714754 355.218951,183.032843 C355.218951,179.384404 356.474129,176.271562 358.984522,173.694224 C361.528388,171.150358 364.591023,169.878445 368.172518,169.878445 C372.624283,169.878445 376.004896,171.719373 378.314458,175.401284 L378.314458,170.480936 Z M361.394488,190.112118 C363.302388,192.020017 365.645387,192.973952 368.423556,192.973952 C371.201725,192.973952 373.544724,192.020017 375.452624,190.112118 C377.360523,188.170747 378.314458,185.811012 378.314458,183.032843 C378.314458,180.254673 377.360523,177.911674 375.452624,176.003775 C373.544724,174.062404 371.201725,173.091733 368.423556,173.091733 C365.645387,173.091733 363.302388,174.062404 361.394488,176.003775 C359.486589,177.911674 358.532654,180.254673 358.532654,183.032843 C358.532654,185.811012 359.486589,188.170747 361.394488,190.112118 Z M418.129105,196.18724 C412.773598,196.18724 408.372107,194.429991 404.9245,190.91544 C401.44342,187.367417 399.702907,183.06634 399.702907,178.01208 C399.702907,172.95782 401.44342,168.656744 404.9245,165.10872 C408.372107,161.594169 412.773598,159.83692 418.129105,159.83692 C419.735757,159.83692 421.300546,160.037748 422.823518,160.439411 C424.346491,160.841074 425.760658,161.418456 427.066063,162.171574 C428.371467,162.924692 429.559703,163.836788 430.630804,164.90789 C431.701905,165.978991 432.605634,167.167226 433.342016,168.472631 L430.229143,170.280106 C429.66012,169.209004 428.957221,168.238333 428.120423,167.368063 C427.283625,166.497794 426.346425,165.761422 425.308796,165.158928 C424.271166,164.556433 423.141506,164.087834 421.919781,163.753114 C420.698056,163.418395 419.43451,163.251038 418.129105,163.251038 C413.710812,163.251038 410.129371,164.673573 407.384673,167.518686 C404.606504,170.397271 403.217441,173.895034 403.217441,178.01208 C403.217441,182.129126 404.606504,185.626889 407.384673,188.505474 C410.129371,191.350587 413.710812,192.773122 418.129105,192.773122 C419.43451,192.773122 420.698056,192.605765 421.919781,192.271046 C423.141506,191.936327 424.271166,191.467727 425.308796,190.865232 C426.346425,190.262738 427.283625,189.526367 428.120423,188.656097 C428.957221,187.785827 429.66012,186.815156 430.229143,185.744054 L433.342016,187.501321 C432.639106,188.806726 431.752113,189.994961 430.681012,191.066063 C429.60991,192.137164 428.413307,193.04926 427.091166,193.802378 C425.769026,194.555496 424.346491,195.141246 422.823518,195.559645 C421.300546,195.978044 419.735757,196.18724 418.129105,196.18724 Z M450.362401,169.878445 C453.408345,169.878445 455.809919,170.807276 457.567195,172.664968 C459.324471,174.522659 460.203096,177.024648 460.203096,180.171008 L460.203096,195.584749 L456.889392,195.584749 L456.889392,180.171008 C456.889392,177.928389 456.303642,176.187876 455.132125,174.949415 C453.960608,173.710954 452.270302,173.091733 450.061155,173.091733 C447.651177,173.091733 445.693099,173.84484 444.186863,175.351076 C442.680627,176.857312 441.92752,179.217047 441.92752,182.430351 L441.92752,195.584749 L438.613817,195.584749 L438.613817,160.439411 L441.92752,160.439411 L441.92752,174.397131 C443.768475,171.384658 446.580074,169.878445 450.362401,169.878445 Z M484.302756,170.480936 L487.616459,170.480936 L487.616459,195.584749 L484.302756,195.584749 L484.302756,191.668554 C482.428328,194.681027 479.616729,196.18724 475.867875,196.18724 C472.82193,196.18724 470.420356,195.258409 468.66308,193.400717 C466.905805,191.543026 466.02718,189.041038 466.02718,185.894677 L466.02718,170.480936 L469.340883,170.480936 L469.340883,185.894677 C469.340883,188.137296 469.926633,189.877809 471.09815,191.11627 C472.269667,192.354731 473.959974,192.973952 476.16912,192.973952 C478.579098,192.973952 480.537176,192.220846 482.043413,190.714609 C483.549649,189.208373 484.302756,186.848638 484.302756,183.635334 L484.302756,170.480936 Z M512.720272,170.480936 L516.234806,170.480936 L505.490374,197.8943 C504.519688,200.404694 503.138992,202.362771 501.348245,203.768592 C499.557497,205.174412 497.55758,205.793634 495.348433,205.626274 L495.348433,202.513401 C498.360906,202.881592 500.653698,201.141079 502.226878,197.291808 L502.879577,195.735372 L491.633069,170.480936 L495.147603,170.480936 L504.586636,191.517931 L512.720272,170.480936 Z M532.050208,162.598339 L528.535674,166.966402 L524.770102,166.966402 L530.09211,160.439411 L534.008305,160.439411 L539.330313,166.966402 L535.564741,166.966402 L532.050208,162.598339 Z M531.849377,169.878445 C535.598232,169.878445 538.593924,171.200566 540.836542,173.844847 C543.146104,176.455657 544.300868,179.551763 544.300868,183.133258 C544.300868,183.300617 544.2925,183.518182 544.275764,183.785957 C544.259028,184.053732 544.233925,184.354975 544.200453,184.689694 L522.159305,184.689694 C522.494025,187.23356 523.56511,189.250213 525.372593,190.739713 C527.180077,192.229213 529.439398,192.973952 532.150623,192.973952 C534.058522,192.973952 535.706989,192.580663 537.096074,191.794073 C538.485159,191.007483 539.53114,189.978237 540.234051,188.706304 L543.146093,190.413364 C542.04152,192.220847 540.535306,193.635014 538.627407,194.655908 C536.719507,195.676801 534.543865,196.18724 532.100415,196.18724 C528.150729,196.18724 524.937473,194.948798 522.460551,192.471876 C519.983629,189.994954 518.745187,186.848641 518.745187,183.032843 C518.745187,179.250516 519.966894,176.120939 522.410344,173.644017 C524.853794,171.133623 528.000107,169.878445 531.849377,169.878445 Z M531.849377,173.091733 C530.543972,173.091733 529.339001,173.292561 528.234428,173.694224 C527.129855,174.095887 526.150816,174.664901 525.297282,175.401284 C524.443748,176.137666 523.749216,177.024658 523.213666,178.062288 C522.678115,179.099917 522.326665,180.237945 522.159305,181.476406 L540.88675,181.476406 C540.518559,178.798653 539.49768,176.740161 537.824085,175.300868 C536.083545,173.828104 534.091996,173.091733 531.849377,173.091733 Z M561.321253,169.878445 C564.367198,169.878445 566.768772,170.807276 568.526048,172.664968 C570.283323,174.522659 571.161948,177.024648 571.161948,180.171008 L571.161948,195.584749 L567.848245,195.584749 L567.848245,180.171008 C567.848245,177.928389 567.262495,176.187876 566.090978,174.949415 C564.919461,173.710954 563.229154,173.091733 561.020008,173.091733 C558.610029,173.091733 556.651952,173.84484 555.145715,175.351076 C553.639479,176.857312 552.886372,179.217047 552.886372,182.430351 L552.886372,195.584749 L549.572669,195.584749 L549.572669,170.480936 L552.886372,170.480936 L552.886372,174.397131 C554.727328,171.384658 557.538927,169.878445 561.321253,169.878445 Z M624.231408,178.86561 L624.231408,180.673084 C624.231408,185.024433 622.674987,188.706289 619.562099,191.718762 C616.415739,194.697762 612.248547,196.18724 607.0604,196.18724 C601.704893,196.18724 597.303402,194.429991 593.855795,190.91544 C590.374715,187.367417 588.634202,183.06634 588.634202,178.01208 C588.634202,172.95782 590.374715,168.656744 593.855795,165.10872 C597.303402,161.594169 601.704893,159.83692 607.0604,159.83692 C610.273704,159.83692 613.25266,160.623498 615.997357,162.196678 C618.708583,163.769858 620.800546,165.861822 622.273311,168.472631 L619.160438,170.280106 C618.591415,169.209004 617.888516,168.238333 617.051718,167.368063 C616.21492,166.497794 615.27772,165.761422 614.240091,165.158928 C613.202461,164.556433 612.072801,164.087834 610.851076,163.753114 C609.629351,163.418395 608.365805,163.251038 607.0604,163.251038 C602.642107,163.251038 599.060666,164.673573 596.315968,167.518686 C593.537799,170.397271 592.148735,173.895034 592.148735,178.01208 C592.148735,182.129126 593.537799,185.626889 596.315968,188.505474 C599.060666,191.350587 602.642107,192.773122 607.0604,192.773122 C611.010086,192.773122 614.173135,191.785715 616.549641,189.810872 C618.892676,187.802557 620.248268,185.258729 620.616459,182.179313 L606.658739,182.179313 L606.658739,178.86561 L624.231408,178.86561 Z M633.118158,166.112873 C632.649551,166.58148 632.080537,166.81578 631.411099,166.81578 C630.74166,166.81578 630.172646,166.58148 629.704039,166.112873 C629.235432,165.644266 629.001133,165.075252 629.001133,164.405814 C629.001133,163.736375 629.235432,163.167361 629.704039,162.698754 C630.172646,162.230147 630.74166,161.995847 631.411099,161.995847 C632.080537,161.995847 632.649551,162.230147 633.118158,162.698754 C633.586765,163.167361 633.821065,163.736375 633.821065,164.405814 C633.821065,165.075252 633.586765,165.644266 633.118158,166.112873 Z M629.754247,195.584749 L629.754247,170.480936 L633.06795,170.480936 L633.06795,195.584749 L629.754247,195.584749 Z M661.686297,170.480936 L665,170.480936 L665,195.584749 L661.686297,195.584749 L661.686297,190.664402 C659.376734,194.346313 655.996121,196.18724 651.544356,196.18724 C647.962861,196.18724 644.900227,194.915327 642.356361,192.371461 C639.845967,189.827595 638.590789,186.714754 638.590789,183.032843 C638.590789,179.384404 639.845967,176.271562 642.356361,173.694224 C644.900227,171.150358 647.962861,169.878445 651.544356,169.878445 C655.996121,169.878445 659.376734,171.719373 661.686297,175.401284 L661.686297,170.480936 Z M644.766327,190.112118 C646.674226,192.020017 649.017225,192.973952 651.795394,192.973952 C654.573564,192.973952 656.916563,192.020017 658.824462,190.112118 C660.732361,188.170747 661.686297,185.811012 661.686297,183.032843 C661.686297,180.254673 660.732361,177.911674 658.824462,176.003775 C656.916563,174.062404 654.573564,173.091733 651.795394,173.091733 C649.017225,173.091733 646.674226,174.062404 644.766327,176.003775 C642.858428,177.911674 641.904492,180.254673 641.904492,183.032843 C641.904492,185.811012 642.858428,188.170747 644.766327,190.112118 Z" id="Học-Online-Cùng-Chuy" fill="#636363"></path>
        </g>
    </g>
</svg>