<svg id="Layer_1" data-name="Layer 1" xmlns="http://www.w3.org/2000/svg" viewBox="0 0 292.731 279.925">
  <defs>
    <style>
      .cls-1 {
        fill: #177071;
      }
    </style>
  </defs>
  <title>bulk production</title>
  <path class="cls-1" d="M611.06,470.92c.15-4-1.42-5.3-5.19-5.01-2.78.21-5.58.07-8.38.03-8.16-.11-14.2-5.57-14.38-13.72q-.69-31.05-.84-62.1c-.04-8.5,5.86-13.84,14.6-13.85q98.355-.03,196.69.08c1.74,0,3.48,1.39,5.22,2.13-1.77.7-3.55,2.02-5.33,2.02q-95.385.15-190.77.08c-1.97,0-3.95-.05-5.91.05-5.93.3-9.75,3.75-9.71,9.57q.225,30.315.9,60.62c.13,5.88,3.53,9.04,9.47,9.11q19.215.24,38.44-.01c6.26-.08,8.95-3.04,9.02-9.18.05-4.44-.12-8.88.06-13.31.29-7.35,5.61-12.75,12.94-12.8q29.58-.18,59.15,0c7.5.05,12.31,5.38,12.42,13.63.15,11.83.05,23.66.05,35.49,0,9.04.23,18.09-.11,27.11-.17,4.52,1.15,5.95,5.75,5.92,31.06-.18,62.12-.13,93.17-.02,2.57,0,6.97-1.74,6.95,2.91-.02,4.6-4.41,2.88-6.99,2.89-35.66.1-71.31.16-106.97-.03-4.93-.03-6.68,1.28-6.43,6.37.41,8.19.27,16.43-.01,24.63-.06,1.66-1.76,3.25-2.7,4.88-.98-1.59-2.75-3.14-2.81-4.76-.27-8.7-.25-17.41-.06-26.12.08-3.58-1.08-4.96-4.78-4.95q-53.49.135-106.97,0c-3.58-.01-4.97,1.16-4.88,4.85q.3,12.57-.03,25.14c-.06,1.92-1.37,3.8-2.1,5.7-.64-1.82-1.8-3.63-1.85-5.47q-.285-12.81-.03-25.63c.07-3.44-1.23-4.6-4.61-4.59-8.36.02-12.1,3.49-12.2,11.83-.04,3.29.18,6.59-.11,9.85-.1,1.15-1.37,2.19-2.1,3.28-.66-1.01-1.87-2-1.9-3.03a118.192,118.192,0,0,1,.15-15.75c.76-7.21,7.1-12.07,15.02-12.07q66.54-.03,133.09-.01c10.5,0,9.25.88,9.27-9.18q.06-27.855,0-55.71c-.03-10.1-2.87-12.92-12.89-12.93q-24.885-.03-49.78,0c-10.27.01-11.92,1.72-11.92,12.16,0,3.29.09,6.58-.03,9.86-.3,8.97-6.51,15.01-15.43,15.06-5.75.04-11.51.11-17.25-.03-3.19-.07-4.38,1.19-4.32,4.37.15,7.07.07,14.13.03,21.2-.01,1.52-.24,3.04-.37,4.56l-1.82.09a42.867,42.867,0,0,1-.49-4.51C610.95,484.72,610.79,477.81,611.06,470.92Z" transform="translate(-555.045 -376.007)"/>
  <g>
    <path class="cls-1" d="M578.484,591.891a3.614,3.614,0,0,0,1.188,1.416,4.952,4.952,0,0,0,1.788.757,10.26,10.26,0,0,0,2.208.228,6.2,6.2,0,0,0,1.464-.192,5.084,5.084,0,0,0,1.476-.611,3.767,3.767,0,0,0,1.14-1.08,2.744,2.744,0,0,0,.456-1.6,2.333,2.333,0,0,0-.324-1.247,2.961,2.961,0,0,0-.84-.889,4.961,4.961,0,0,0-1.14-.588,11.264,11.264,0,0,0-1.224-.372l-3.816-.936a11.331,11.331,0,0,1-1.452-.48,4.114,4.114,0,0,1-1.236-.768,3.647,3.647,0,0,1-.852-1.176,4.018,4.018,0,0,1-.324-1.7,5.457,5.457,0,0,1,.24-1.465,4.077,4.077,0,0,1,.9-1.584,5.262,5.262,0,0,1,1.812-1.26,7.266,7.266,0,0,1,2.952-.516,8.629,8.629,0,0,1,2.424.336,5.986,5.986,0,0,1,2.016,1.008,4.85,4.85,0,0,1,1.9,3.984H587.6a3.97,3.97,0,0,0-.444-1.716,3.837,3.837,0,0,0-1.032-1.225,4.528,4.528,0,0,0-1.464-.744,5.944,5.944,0,0,0-1.74-.252,7.17,7.17,0,0,0-1.62.181,4.047,4.047,0,0,0-1.368.575,2.987,2.987,0,0,0-.948,1.044,3.276,3.276,0,0,0-.36,1.608,2.475,2.475,0,0,0,.2,1.044,2.2,2.2,0,0,0,.564.756,2.982,2.982,0,0,0,.828.5,6.211,6.211,0,0,0,1,.313l4.176,1.032a12.008,12.008,0,0,1,1.716.588,5.679,5.679,0,0,1,1.416.863,3.664,3.664,0,0,1,.96,1.261,4.232,4.232,0,0,1,.348,1.8,6.5,6.5,0,0,1-.06.768,3.882,3.882,0,0,1-.288,1.021,5.125,5.125,0,0,1-.648,1.092,4.077,4.077,0,0,1-1.152,1,6.675,6.675,0,0,1-1.812.72,10.6,10.6,0,0,1-2.592.276,10.779,10.779,0,0,1-2.808-.349,6.045,6.045,0,0,1-2.208-1.067,4.7,4.7,0,0,1-1.4-1.849,6.053,6.053,0,0,1-.42-2.712h1.632A4.824,4.824,0,0,0,578.484,591.891Z" transform="translate(-555.045 -376.007)"/>
    <path class="cls-1" d="M604.26,578.187v1.393h-10.2v6.192h9.552v1.392H594.06v6.768h10.32v1.393H592.428V578.187Z" transform="translate(-555.045 -376.007)"/>
    <path class="cls-1" d="M608.291,578.187v15.744h9.6v1.393H606.659V578.187Z" transform="translate(-555.045 -376.007)"/>
    <path class="cls-1" d="M631.379,578.187v1.393h-10.2v6.192h9.552v1.392h-9.552v6.768H631.5v1.393H619.547V578.187Z" transform="translate(-555.045 -376.007)"/>
    <path class="cls-1" d="M645.6,581.607a4.829,4.829,0,0,0-1.2-1.309,5.354,5.354,0,0,0-1.561-.8,5.78,5.78,0,0,0-1.788-.276,6.174,6.174,0,0,0-2.928.648,5.8,5.8,0,0,0-2,1.716A7.4,7.4,0,0,0,634.966,584a10.378,10.378,0,0,0,0,5.508,7.374,7.374,0,0,0,1.152,2.424,5.8,5.8,0,0,0,2,1.716,6.174,6.174,0,0,0,2.928.648,5.206,5.206,0,0,0,2.16-.432,5.131,5.131,0,0,0,1.656-1.177,6.026,6.026,0,0,0,1.128-1.739,7.251,7.251,0,0,0,.552-2.148h1.632a9.217,9.217,0,0,1-.744,2.856,7,7,0,0,1-1.487,2.159,6.3,6.3,0,0,1-2.148,1.368,7.53,7.53,0,0,1-2.748.48,8.083,8.083,0,0,1-3.54-.732,7.332,7.332,0,0,1-2.532-1.956,8.3,8.3,0,0,1-1.512-2.832,11.613,11.613,0,0,1,0-6.768,8.438,8.438,0,0,1,1.512-2.844,7.283,7.283,0,0,1,2.532-1.969,8.588,8.588,0,0,1,5.928-.372,6.929,6.929,0,0,1,2.111,1.068,6.241,6.241,0,0,1,1.584,1.74,5.866,5.866,0,0,1,.8,2.376h-1.633A5.457,5.457,0,0,0,645.6,581.607Z" transform="translate(-555.045 -376.007)"/>
    <path class="cls-1" d="M662.41,578.187v1.393h-5.977v15.744H654.8V579.579H648.85v-1.393Z" transform="translate(-555.045 -376.007)"/>
    <path class="cls-1" d="M665.771,578.187v17.137h-1.632V578.187Z" transform="translate(-555.045 -376.007)"/>
    <path class="cls-1" d="M668.938,583.371a8.448,8.448,0,0,1,1.513-2.844,7.286,7.286,0,0,1,2.531-1.969,8.1,8.1,0,0,1,3.54-.731,8.018,8.018,0,0,1,3.528.731,7.327,7.327,0,0,1,2.521,1.969,8.446,8.446,0,0,1,1.512,2.844,11.613,11.613,0,0,1,0,6.768,8.308,8.308,0,0,1-1.512,2.832,7.377,7.377,0,0,1-2.521,1.956,8,8,0,0,1-3.528.732,8.087,8.087,0,0,1-3.54-.732,7.335,7.335,0,0,1-2.531-1.956,8.31,8.31,0,0,1-1.513-2.832,11.613,11.613,0,0,1,0-6.768Zm1.5,6.132a7.365,7.365,0,0,0,1.152,2.424,5.8,5.8,0,0,0,2,1.716,6.174,6.174,0,0,0,2.928.648,6.1,6.1,0,0,0,2.916-.648,5.821,5.821,0,0,0,1.992-1.716,7.384,7.384,0,0,0,1.152-2.424,10.378,10.378,0,0,0,0-5.508,7.409,7.409,0,0,0-1.152-2.412,5.821,5.821,0,0,0-1.992-1.716,6.1,6.1,0,0,0-2.916-.648,6.174,6.174,0,0,0-2.928.648,5.8,5.8,0,0,0-2,1.716A7.389,7.389,0,0,0,670.438,584a10.4,10.4,0,0,0,0,5.508Z" transform="translate(-555.045 -376.007)"/>
    <path class="cls-1" d="M688.93,578.187l9.984,14.5h.048v-14.5h1.632v17.137H698.77l-9.984-14.5h-.048v14.5h-1.632V578.187Z" transform="translate(-555.045 -376.007)"/>
    <path class="cls-1" d="M710.289,583.371a8.448,8.448,0,0,1,1.513-2.844,7.286,7.286,0,0,1,2.531-1.969,8.1,8.1,0,0,1,3.54-.731,8.018,8.018,0,0,1,3.528.731,7.314,7.314,0,0,1,2.52,1.969,8.446,8.446,0,0,1,1.512,2.844,11.613,11.613,0,0,1,0,6.768,8.308,8.308,0,0,1-1.512,2.832,7.364,7.364,0,0,1-2.52,1.956,8,8,0,0,1-3.528.732,8.087,8.087,0,0,1-3.54-.732,7.335,7.335,0,0,1-2.531-1.956,8.31,8.31,0,0,1-1.513-2.832,11.613,11.613,0,0,1,0-6.768Zm1.5,6.132a7.365,7.365,0,0,0,1.152,2.424,5.8,5.8,0,0,0,2,1.716,6.174,6.174,0,0,0,2.928.648,6.1,6.1,0,0,0,2.916-.648,5.821,5.821,0,0,0,1.992-1.716,7.363,7.363,0,0,0,1.151-2.424,10.351,10.351,0,0,0,0-5.508,7.387,7.387,0,0,0-1.151-2.412,5.821,5.821,0,0,0-1.992-1.716,6.1,6.1,0,0,0-2.916-.648,6.174,6.174,0,0,0-2.928.648,5.8,5.8,0,0,0-2,1.716A7.389,7.389,0,0,0,711.789,584a10.4,10.4,0,0,0,0,5.508Z" transform="translate(-555.045 -376.007)"/>
    <path class="cls-1" d="M739.353,578.187v1.393h-9.239v6.192h8.208v1.392h-8.208v8.16H728.48V578.187Z" transform="translate(-555.045 -376.007)"/>
    <path class="cls-1" d="M758.912,578.187v1.393h-9.239v6.192h8.208v1.392h-8.208v8.16H748.04V578.187Z" transform="translate(-555.045 -376.007)"/>
    <path class="cls-1" d="M766.448,578.187l6.72,17.137h-1.752L769.328,590h-7.8l-2.064,5.328h-1.728l6.888-17.137Zm2.328,10.416-3.312-8.783-3.432,8.783Z" transform="translate(-555.045 -376.007)"/>
    <path class="cls-1" d="M781.977,578.187a10.34,10.34,0,0,1,2.076.2,5.038,5.038,0,0,1,1.752.7,3.694,3.694,0,0,1,1.212,1.3,4.4,4.4,0,0,1,.24,3.313,3.949,3.949,0,0,1-.612,1.151,3.854,3.854,0,0,1-.936.876,3.473,3.473,0,0,1-1.212.5v.049a4.038,4.038,0,0,1,2.64,1.355,4.165,4.165,0,0,1,.984,2.82,6.774,6.774,0,0,1-.072.924,4.478,4.478,0,0,1-.288,1.056,4.425,4.425,0,0,1-.624,1.068,3.685,3.685,0,0,1-1.092.924,6.6,6.6,0,0,1-1.68.648,9.856,9.856,0,0,1-2.389.252h-7.248V578.187Zm0,7.513a5.655,5.655,0,0,0,1.7-.229,3.522,3.522,0,0,0,1.2-.624,2.559,2.559,0,0,0,.72-.924,2.689,2.689,0,0,0,.24-1.128q0-3.215-3.864-3.216h-5.615v6.12Zm0,8.231a9.237,9.237,0,0,0,1.729-.155,3.959,3.959,0,0,0,1.439-.564,2.882,2.882,0,0,0,.984-1.092,3.658,3.658,0,0,0,.36-1.716,2.849,2.849,0,0,0-1.164-2.484,5.736,5.736,0,0,0-3.349-.828h-5.615v6.84Z" transform="translate(-555.045 -376.007)"/>
    <path class="cls-1" d="M798.585,578.187a7.45,7.45,0,0,1,2,.265,4.837,4.837,0,0,1,1.656.8,3.879,3.879,0,0,1,1.128,1.393,4.489,4.489,0,0,1,.42,2,4.816,4.816,0,0,1-.84,2.832,3.832,3.832,0,0,1-2.5,1.535v.049a3.809,3.809,0,0,1,1.392.443,2.8,2.8,0,0,1,.9.828,3.43,3.43,0,0,1,.5,1.164,8.6,8.6,0,0,1,.2,1.428q.023.432.048,1.057t.1,1.26a7.712,7.712,0,0,0,.229,1.2,2.276,2.276,0,0,0,.42.876h-1.8a2.075,2.075,0,0,1-.229-.588,5.161,5.161,0,0,1-.12-.721c-.023-.247-.044-.491-.06-.731s-.032-.448-.048-.624q-.048-.913-.156-1.812a4.978,4.978,0,0,0-.456-1.607,2.843,2.843,0,0,0-1.008-1.141,3.049,3.049,0,0,0-1.812-.384h-6.191v7.608h-1.633V578.187Zm-.12,8.137a4.369,4.369,0,0,0,1.416-.229,3.521,3.521,0,0,0,1.176-.66,3.223,3.223,0,0,0,.8-1.044,3.145,3.145,0,0,0,.3-1.4,3.375,3.375,0,0,0-.912-2.5,3.788,3.788,0,0,0-2.784-.912h-6.1v6.744Z" transform="translate(-555.045 -376.007)"/>
    <path class="cls-1" d="M808.5,578.187v17.137h-1.633V578.187Z" transform="translate(-555.045 -376.007)"/>
    <path class="cls-1" d="M823.891,581.607a4.832,4.832,0,0,0-1.2-1.309,5.348,5.348,0,0,0-1.56-.8,5.78,5.78,0,0,0-1.788-.276,6.168,6.168,0,0,0-2.928.648,5.79,5.79,0,0,0-2,1.716A7.389,7.389,0,0,0,813.259,584a10.378,10.378,0,0,0,0,5.508,7.365,7.365,0,0,0,1.152,2.424,5.79,5.79,0,0,0,2,1.716,6.168,6.168,0,0,0,2.928.648,5.209,5.209,0,0,0,2.16-.432,5.131,5.131,0,0,0,1.656-1.177,6.026,6.026,0,0,0,1.128-1.739,7.251,7.251,0,0,0,.552-2.148h1.632a9.272,9.272,0,0,1-.744,2.856,7,7,0,0,1-1.487,2.159,6.3,6.3,0,0,1-2.148,1.368,7.53,7.53,0,0,1-2.748.48,8.084,8.084,0,0,1-3.54-.732,7.329,7.329,0,0,1-2.532-1.956,8.308,8.308,0,0,1-1.512-2.832,11.613,11.613,0,0,1,0-6.768,8.446,8.446,0,0,1,1.512-2.844,7.28,7.28,0,0,1,2.532-1.969,8.587,8.587,0,0,1,5.928-.372,6.923,6.923,0,0,1,2.112,1.068,6.24,6.24,0,0,1,1.584,1.74,5.865,5.865,0,0,1,.8,2.376H824.6A5.457,5.457,0,0,0,823.891,581.607Z" transform="translate(-555.045 -376.007)"/>
    <path class="cls-1" d="M647.662,606.986l6.721,17.137h-1.752l-2.088-5.328h-7.8l-2.063,5.328h-1.728l6.888-17.137ZM649.99,617.4l-3.312-8.783-3.433,8.783Z" transform="translate(-555.045 -376.007)"/>
    <path class="cls-1" d="M657.742,606.986l9.984,14.5h.048v-14.5h1.632v17.137h-1.824l-9.984-14.5h-.048v14.5h-1.632V606.986Z" transform="translate(-555.045 -376.007)"/>
    <path class="cls-1" d="M678.766,606.986a8.014,8.014,0,0,1,5.893,2.2q1.98,2.1,1.979,6.372t-1.979,6.372a8.01,8.01,0,0,1-5.893,2.2h-5.928V606.986Zm-.815,15.744a11.253,11.253,0,0,0,3.18-.4,5.094,5.094,0,0,0,2.2-1.26,5.177,5.177,0,0,0,1.271-2.232,13.447,13.447,0,0,0,0-6.576,5.168,5.168,0,0,0-1.271-2.231,5.1,5.1,0,0,0-2.2-1.261,11.253,11.253,0,0,0-3.18-.4h-3.48V622.73Z" transform="translate(-555.045 -376.007)"/>
    <path class="cls-1" d="M707.686,606.986v1.393H701.71v15.744h-1.632V608.379h-5.952v-1.393Z" transform="translate(-555.045 -376.007)"/>
    <path class="cls-1" d="M717.142,606.986a7.445,7.445,0,0,1,2,.265,4.837,4.837,0,0,1,1.656.8,3.879,3.879,0,0,1,1.128,1.393,4.489,4.489,0,0,1,.42,2,4.816,4.816,0,0,1-.84,2.832,3.832,3.832,0,0,1-2.5,1.535v.049a3.809,3.809,0,0,1,1.392.443,2.8,2.8,0,0,1,.9.828,3.43,3.43,0,0,1,.5,1.164,8.6,8.6,0,0,1,.2,1.428c.016.288.032.641.048,1.057s.048.836.1,1.26a7.827,7.827,0,0,0,.229,1.2,2.29,2.29,0,0,0,.42.876h-1.8a2.134,2.134,0,0,1-.229-.588,5.309,5.309,0,0,1-.12-.721c-.023-.247-.044-.491-.06-.731s-.032-.448-.048-.624q-.048-.913-.156-1.812a4.978,4.978,0,0,0-.456-1.607,2.843,2.843,0,0,0-1.008-1.141,3.049,3.049,0,0,0-1.812-.384h-6.191v7.608h-1.632V606.986Zm-.12,8.137a4.369,4.369,0,0,0,1.416-.229,3.511,3.511,0,0,0,1.176-.66,3.226,3.226,0,0,0,.8-1.044,3.158,3.158,0,0,0,.3-1.4,3.375,3.375,0,0,0-.912-2.5,3.788,3.788,0,0,0-2.784-.912h-6.1v6.744Z" transform="translate(-555.045 -376.007)"/>
    <path class="cls-1" d="M727.054,606.986v17.137h-1.633V606.986Z" transform="translate(-555.045 -376.007)"/>
    <path class="cls-1" d="M732.981,606.986l5.688,15.024,5.9-15.024h2.4v17.137h-1.632V609.314h-.049l-5.855,14.809H737.9l-5.64-14.809h-.049v14.809h-1.632V606.986Z" transform="translate(-555.045 -376.007)"/>
    <path class="cls-1" d="M751.51,620.69a3.612,3.612,0,0,0,1.188,1.416,4.945,4.945,0,0,0,1.788.757,10.257,10.257,0,0,0,2.208.228,6.192,6.192,0,0,0,1.464-.192,5.087,5.087,0,0,0,1.477-.611,3.759,3.759,0,0,0,1.14-1.08,2.744,2.744,0,0,0,.456-1.6,2.337,2.337,0,0,0-.324-1.247,2.961,2.961,0,0,0-.84-.889,4.947,4.947,0,0,0-1.14-.588,11.279,11.279,0,0,0-1.225-.372l-3.815-.936a11.338,11.338,0,0,1-1.452-.48,4.1,4.1,0,0,1-1.236-.768,3.654,3.654,0,0,1-.852-1.176,4.025,4.025,0,0,1-.324-1.7,5.441,5.441,0,0,1,.24-1.465,4.075,4.075,0,0,1,.9-1.584,5.264,5.264,0,0,1,1.813-1.26,7.265,7.265,0,0,1,2.952-.516,8.631,8.631,0,0,1,2.424.336,6,6,0,0,1,2.016,1.008,4.855,4.855,0,0,1,1.9,3.984H760.63a3.977,3.977,0,0,0-.444-1.716,3.831,3.831,0,0,0-1.032-1.225,4.533,4.533,0,0,0-1.464-.744,5.943,5.943,0,0,0-1.74-.252,7.183,7.183,0,0,0-1.62.181,4.041,4.041,0,0,0-1.367.575,2.988,2.988,0,0,0-.948,1.044,3.276,3.276,0,0,0-.36,1.608,2.483,2.483,0,0,0,.2,1.044,2.192,2.192,0,0,0,.564.756,2.97,2.97,0,0,0,.827.5,6.243,6.243,0,0,0,1,.313l4.177,1.032a12,12,0,0,1,1.716.588,5.67,5.67,0,0,1,1.416.863,3.658,3.658,0,0,1,.96,1.261,4.232,4.232,0,0,1,.348,1.8,6.7,6.7,0,0,1-.06.768,3.9,3.9,0,0,1-.288,1.021,5.1,5.1,0,0,1-.648,1.092,4.088,4.088,0,0,1-1.151,1,6.686,6.686,0,0,1-1.812.72,10.6,10.6,0,0,1-2.592.276,10.775,10.775,0,0,1-2.808-.349,6.037,6.037,0,0,1-2.208-1.067,4.693,4.693,0,0,1-1.4-1.849,6.053,6.053,0,0,1-.42-2.712H751.1A4.811,4.811,0,0,0,751.51,620.69Z" transform="translate(-555.045 -376.007)"/>
  </g>
</svg>
