<svg id="Layer_1" data-name="Layer 1" xmlns="http://www.w3.org/2000/svg" viewBox="0 0 626 626">
  <defs>
    <style>
      .cls-1 {
        fill: #177071;
      }

      .cls-2 {
        fill: #fff;
      }
    </style>
  </defs>
  <title>Information</title>
  <g>
    <path class="cls-1" d="M622,200h38a33.472,33.472,0,0,0,4.331.918c51.551,4.171,99.364,19.553,143.206,47.208A310.879,310.879,0,0,1,908.557,350.679a302.787,302.787,0,0,1,42.489,121.143c.923,7.4,1.966,14.786,2.954,22.178v38a41.755,41.755,0,0,0-.954,4.851,312.649,312.649,0,0,1-21.83,93.5c-19.754,48.569-49.779,89.835-90.131,123.249-46.23,38.281-99.147,61.783-158.877,69.443C674.8,824,667.4,825.014,660,826H622a43.361,43.361,0,0,0-4.833-.942c-32.415-2.688-63.823-9.72-93.941-22.088q-86.115-35.362-139.408-111.754A303.366,303.366,0,0,1,330.96,554.2c-.941-7.406-1.971-14.8-2.96-22.2q0-18.5,0-37c.343-2.094.836-4.175,1.007-6.283a310.823,310.823,0,0,1,22.566-94.856c20.534-49.362,51.543-90.994,93.266-124.521,45.465-36.535,97.047-58.845,154.951-66.375C607.2,202,614.6,200.99,622,200ZM378.983,512.637c.059,143.815,116.429,262.052,261.63,262.419,143.567.363,262.308-116.491,262.5-262.006.19-142.958-116.264-261.942-261.859-262.136C497.9,250.724,379.641,366.978,378.983,512.637Z" transform="translate(-328 -200)"/>
    <path class="cls-2" d="M328,532c.989,7.4,2.019,14.794,2.96,22.2a303.366,303.366,0,0,0,52.859,137.016q53.157,76.256,139.408,111.754c30.118,12.367,61.526,19.4,93.941,22.088A43.361,43.361,0,0,1,622,826H328Z" transform="translate(-328 -200)"/>
    <path class="cls-2" d="M622,200c-7.4.99-14.8,2-22.21,2.966-57.9,7.529-109.486,29.84-154.951,66.375-41.723,33.527-72.732,75.159-93.266,124.521a310.823,310.823,0,0,0-22.566,94.856c-.171,2.108-.664,4.189-1.007,6.283q0-147.375,0-295Z" transform="translate(-328 -200)"/>
    <path class="cls-2" d="M954,494c-.988-7.392-2.03-14.778-2.954-22.178a302.787,302.787,0,0,0-42.489-121.143A310.879,310.879,0,0,0,807.536,248.126c-43.842-27.655-91.655-43.037-143.206-47.208A33.472,33.472,0,0,1,660,200H954Z" transform="translate(-328 -200)"/>
    <path class="cls-2" d="M660,826c7.4-.986,14.8-2,22.209-2.954,59.73-7.659,112.647-31.161,158.877-69.443,40.352-33.414,70.377-74.68,90.131-123.249a312.649,312.649,0,0,0,21.83-93.5A41.755,41.755,0,0,1,954,532V826Z" transform="translate(-328 -200)"/>
    <path class="cls-2" d="M378.983,512.637c.658-145.659,118.92-261.912,262.272-261.722,145.6.194,262.05,119.178,261.859,262.136-.194,145.514-118.935,262.369-262.5,262.006C495.411,774.688,379.042,656.451,378.983,512.637Zm309.21-96.328c-2.356-.149-3.166-.25-3.975-.244q-56.472.415-112.944.847a4.71,4.71,0,0,1-.5,0c-2.7-.269-3.892.748-3.863,3.656q.217,21.742.13,43.486c-.016,3.105,1.14,4.018,4.117,3.947,7.494-.178,15.012.213,22.485-.224,4.973-.291,6.476,1.038,6.486,6.263.1,52.481.5,104.962.8,157.443.035,6.114,0,12.229,0,19.055-10.2,0-19.834.225-29.445-.1-4.536-.153-5.621,1.446-5.515,5.737.313,12.656.413,25.328.145,37.983-.1,4.606,1.517,5.484,5.749,5.448,46.983-.4,93.967-.614,140.951-.9,1.6-.01,3.193-.222,4.638-.329V649.959H688.192ZM642.7,382.115c6.3-1.353,12.8-2.1,18.853-4.175,15.723-5.386,25.107-16.858,27.624-33.066,2.513-16.183-2.17-30.578-15.187-41.082-13.807-11.141-29.693-12.238-46.33-7.657-22.417,6.173-36.078,30.938-29.281,53.142C604.644,369.741,620.374,381.142,642.7,382.115Z" transform="translate(-328 -200)"/>
    <path class="cls-1" d="M688.192,416.308v233.65H717.46v48.425c-1.445.107-3.041.319-4.638.329-46.984.283-93.968.495-140.951.9-4.232.036-5.846-.842-5.749-5.448.267-12.656.167-25.327-.145-37.983-.106-4.291.979-5.89,5.515-5.737,9.611.323,19.241.1,29.445.1,0-6.826.031-12.941,0-19.055-.3-52.481-.7-104.962-.8-157.443-.01-5.225-1.513-6.554-6.486-6.263-7.473.437-14.992.046-22.485.224-2.977.071-4.132-.842-4.117-3.947q.109-21.742-.13-43.486c-.029-2.908,1.164-3.925,3.863-3.656a4.71,4.71,0,0,0,.5,0q56.472-.427,112.944-.847C685.027,416.058,685.837,416.16,688.192,416.308Z" transform="translate(-328 -200)"/>
    <path class="cls-1" d="M642.7,382.115c-22.325-.973-38.055-12.374-44.32-32.837-6.8-22.2,6.864-46.969,29.281-53.142,16.637-4.581,32.523-3.485,46.33,7.657,13.017,10.5,17.7,24.9,15.187,41.082-2.517,16.208-11.9,27.68-27.624,33.066C655.5,380.013,649,380.763,642.7,382.115Z" transform="translate(-328 -200)"/>
  </g>
</svg>
