<svg id="Layer_1" data-name="Layer 1" xmlns="http://www.w3.org/2000/svg" viewBox="0 0 292.981 259.754">
  <defs>
    <style>
      .cls-1 {
        fill: #177071;
      }
    </style>
  </defs>
  <title>pict3 copy</title>
  <g>
    <path class="cls-1" d="M633.2,544.917c-.159-1.846-.448-3.692-.456-5.539-.042-10.329.03-20.659-.06-30.988-.015-1.761-.1-3.968-1.1-5.161-1.253-1.484-3.559-2.972-5.3-2.85-1.247.087-3.263,2.789-3.3,4.364-.29,11.822-.113,23.654-.254,35.481-.02,1.685-.966,3.359-1.483,5.038l-1.962-.439V528.829c-5.534-.8-9.458,2.12-9.91,7.352-.429,4.964-.224,9.984-.285,14.979-.022,1.784,0,3.568,0,6.816-2.306-1.595-4.5-2.422-4.479-3.2a186.392,186.392,0,0,1,1.26-22.153c.623-4.425,4.3-7.033,8.633-8.545,4.122-1.44,6.355-7.1,4.252-10.875-.529-.951-2.432-1.541-3.73-1.588-4.991-.184-10-.2-14.99-.04-3.037.1-4.129-1.117-4.124-4.077q.077-41.234,0-82.467c-.007-3.144,1.393-3.888,4.274-3.879q39.984.116,79.969-.015c3.727-.016,4.82,1.243,4.8,4.931q-.2,40.234.015,80.468c.026,4.123-1.534,5.088-5.252,5.047-12.827-.142-25.662.171-38.482-.163-5.441-.142-5.94,2.578-5.81,6.8.2,6.464.623,7.178,6.023,7.225,4.831.042,9.663-.023,14.494.019,9.394.081,15.133,5.707,15.224,14.943.053,5.331.121,10.666-.062,15.991-.04,1.171-1.114,2.307-1.712,3.458-.983-1.111-2.734-2.169-2.816-3.342-.332-4.809-.108-9.654-.176-14.485-.135-9.572-2.986-12.433-12.609-12.623q-6.245-.123-12.495,0c-4.833.088-6,1.864-5.45,6.571.344,2.922-.233,5.953-.4,8.935Zm-14.87-39.554a12.767,12.767,0,0,0,.616-2.056c.308-4.74,2.733-7.768,7.467-8.263,5.068-.53,8.154,2.019,8.989,7.1.505,3.072,2.64,3.359,5.184,3.347,11.5-.052,23-.167,34.488.056,3.892.075,5.152-1.063,5.122-5.049-.171-22.658-.213-45.32.026-67.977.049-4.605-1.52-5.5-5.742-5.467-22.991.187-45.985.081-68.978.1-1.783,0-3.565.213-5.816.357,0,8.425,0,16.4,0,24.368,0,16.328-.062,32.657.109,48.984.016,1.508,1.426,4.228,2.348,4.3C607.563,505.572,613.028,505.363,618.332,505.363Z" transform="translate(-494.393 -421.131)"/>
    <path class="cls-1" d="M584.87,505.86c.03,4.69-1.67,6.08-6.11,6.02-13.15-.17-26.3-.06-39.45-.06s-26.3-.14-39.45.08c-4.01.07-5.21-1.4-5.2-5.18q.12-39.705-.02-79.41c-.01-4.27,1.47-5.75,5.84-5.72q38.955.255,77.91.02c4.68-.03,6.5,1.49,6.46,6.34Q584.61,466.905,584.87,505.86Zm-5.75-74.53c.01-3.09-1.2-4.03-4.15-4.02q-35.475.1-70.96-.01c-3.54-.01-4.55,1.34-4.51,4.72.16,11.66.06,23.32.06,34.99s.06,23.32-.04,34.98c-.03,3.38.74,5.21,4.7,5.19q35.235-.195,70.47-.01c3.3.02,4.41-1.24,4.4-4.37Q579.015,467.055,579.12,431.33Z" transform="translate(-494.393 -421.131)"/>
    <path class="cls-1" d="M697.2,466.485c0-12.99.1-25.981-.06-38.969-.055-4.332,1.644-5.911,5.906-5.9,26.312.1,52.626.139,78.938-.031,4.346-.028,5.393,1.739,5.381,5.61q-.124,39.719.008,79.438c.014,3.774-1.085,5.281-5.12,5.259q-39.718-.219-79.437-.02c-4.334.018-5.763-1.628-5.693-5.923C697.337,492.8,697.2,479.642,697.2,466.485Zm84.826,40.4a40.264,40.264,0,0,0,.5-4.338c.03-23.641-.045-47.282.1-70.922.023-3.751-1.584-4.337-4.783-4.324q-34.962.136-69.923-.022c-3.633-.021-4.942.966-4.919,4.761q.219,34.961,0,69.923c-.029,4.29,1.6,5.259,5.587,5.231,22.807-.162,45.617-.075,68.425-.088C778.5,507.106,779.978,506.981,782.026,506.888Z" transform="translate(-494.393 -421.131)"/>
  </g>
  <g>
    <path class="cls-1" d="M512.367,460.535l2.916,11.25h.036l3.132-11.25h1.53l3.15,11.25h.036l2.934-11.25h1.224l-3.546,12.852h-1.3l-3.258-11.5h-.036l-3.24,11.5h-1.332l-3.564-12.852Z" transform="translate(-494.393 -421.131)"/>
    <path class="cls-1" d="M528.37,464.423a6.341,6.341,0,0,1,1.134-2.133,5.466,5.466,0,0,1,1.9-1.476,6.675,6.675,0,0,1,5.3,0,5.49,5.49,0,0,1,1.89,1.476,6.342,6.342,0,0,1,1.134,2.133,8.71,8.71,0,0,1,0,5.076,6.234,6.234,0,0,1-1.134,2.124,5.533,5.533,0,0,1-1.89,1.467,6.675,6.675,0,0,1-5.3,0,5.508,5.508,0,0,1-1.9-1.467,6.233,6.233,0,0,1-1.134-2.124,8.7,8.7,0,0,1,0-5.076Zm1.125,4.6a5.523,5.523,0,0,0,.864,1.818,4.35,4.35,0,0,0,1.5,1.287,4.639,4.639,0,0,0,2.2.486,4.587,4.587,0,0,0,2.187-.486,4.381,4.381,0,0,0,1.494-1.287,5.543,5.543,0,0,0,.864-1.818,7.79,7.79,0,0,0,0-4.131,5.557,5.557,0,0,0-.864-1.809,4.38,4.38,0,0,0-1.494-1.287,4.581,4.581,0,0,0-2.187-.486,4.633,4.633,0,0,0-2.2.486,4.349,4.349,0,0,0-1.5,1.287,5.536,5.536,0,0,0-.864,1.809,7.777,7.777,0,0,0,0,4.131Z" transform="translate(-494.393 -421.131)"/>
    <path class="cls-1" d="M541.708,464.423a6.341,6.341,0,0,1,1.134-2.133,5.466,5.466,0,0,1,1.9-1.476,6.675,6.675,0,0,1,5.3,0,5.49,5.49,0,0,1,1.89,1.476,6.342,6.342,0,0,1,1.134,2.133,8.71,8.71,0,0,1,0,5.076,6.234,6.234,0,0,1-1.134,2.124,5.533,5.533,0,0,1-1.89,1.467,6.675,6.675,0,0,1-5.3,0,5.508,5.508,0,0,1-1.9-1.467,6.233,6.233,0,0,1-1.134-2.124,8.7,8.7,0,0,1,0-5.076Zm1.125,4.6a5.523,5.523,0,0,0,.864,1.818,4.35,4.35,0,0,0,1.5,1.287,4.639,4.639,0,0,0,2.2.486,4.587,4.587,0,0,0,2.187-.486,4.381,4.381,0,0,0,1.494-1.287,5.543,5.543,0,0,0,.864-1.818,7.79,7.79,0,0,0,0-4.131,5.557,5.557,0,0,0-.864-1.809,4.38,4.38,0,0,0-1.494-1.287,4.581,4.581,0,0,0-2.187-.486,4.633,4.633,0,0,0-2.2.486,4.349,4.349,0,0,0-1.5,1.287,5.536,5.536,0,0,0-.864,1.809,7.777,7.777,0,0,0,0,4.131Z" transform="translate(-494.393 -421.131)"/>
    <path class="cls-1" d="M556.575,460.535v11.808h7.2v1.044h-8.424V460.535Z" transform="translate(-494.393 -421.131)"/>
  </g>
  <g>
    <path class="cls-1" d="M622.134,470.813a2.709,2.709,0,0,0,.891,1.062,3.716,3.716,0,0,0,1.341.567,7.676,7.676,0,0,0,1.656.171,4.675,4.675,0,0,0,1.1-.144,3.813,3.813,0,0,0,1.107-.459,2.826,2.826,0,0,0,.855-.81,2.053,2.053,0,0,0,.342-1.2,1.753,1.753,0,0,0-.243-.936,2.22,2.22,0,0,0-.63-.666,3.713,3.713,0,0,0-.855-.441,8.424,8.424,0,0,0-.918-.279l-2.862-.7a8.486,8.486,0,0,1-1.089-.36,3.1,3.1,0,0,1-.927-.576,2.722,2.722,0,0,1-.639-.882,3.013,3.013,0,0,1-.243-1.278,4.077,4.077,0,0,1,.18-1.1,3.047,3.047,0,0,1,.675-1.188,3.938,3.938,0,0,1,1.359-.945,5.45,5.45,0,0,1,2.214-.387,6.463,6.463,0,0,1,1.818.252,4.484,4.484,0,0,1,1.512.756,3.64,3.64,0,0,1,1.422,2.988h-1.224a2.989,2.989,0,0,0-.333-1.287,2.882,2.882,0,0,0-.774-.918,3.4,3.4,0,0,0-1.1-.558,4.46,4.46,0,0,0-1.305-.189,5.365,5.365,0,0,0-1.215.135,3.042,3.042,0,0,0-1.026.432,2.234,2.234,0,0,0-.711.783,2.455,2.455,0,0,0-.27,1.206,1.86,1.86,0,0,0,.153.783,1.655,1.655,0,0,0,.423.567,2.25,2.25,0,0,0,.621.378,4.7,4.7,0,0,0,.747.234l3.132.774a9.054,9.054,0,0,1,1.287.441,4.267,4.267,0,0,1,1.062.648,2.735,2.735,0,0,1,.72.945,3.172,3.172,0,0,1,.261,1.35,4.919,4.919,0,0,1-.045.576,2.922,2.922,0,0,1-.216.765,3.821,3.821,0,0,1-.486.819,3.053,3.053,0,0,1-.864.747,5,5,0,0,1-1.359.54,7.957,7.957,0,0,1-1.944.207,8.107,8.107,0,0,1-2.106-.261,4.53,4.53,0,0,1-1.656-.8,3.523,3.523,0,0,1-1.053-1.386,4.54,4.54,0,0,1-.315-2.034h1.224A3.607,3.607,0,0,0,622.134,470.813Z" transform="translate(-494.393 -421.131)"/>
    <path class="cls-1" d="M633.905,460.535v12.852h-1.224V460.535Z" transform="translate(-494.393 -421.131)"/>
    <path class="cls-1" d="M637.811,460.535v11.808h7.2v1.044h-8.425V460.535Z" transform="translate(-494.393 -421.131)"/>
    <path class="cls-1" d="M647.478,460.535v6.912l7.47-6.912H656.6l-5.742,5.31,6.012,7.542h-1.584l-5.346-6.7-2.466,2.286v4.41h-1.225V460.535Z" transform="translate(-494.393 -421.131)"/>
  </g>
  <g>
    <path class="cls-1" d="M717.394,463.1a3.631,3.631,0,0,0-.9-.981,4.037,4.037,0,0,0-1.171-.6,4.332,4.332,0,0,0-1.341-.207,4.629,4.629,0,0,0-2.2.486,4.356,4.356,0,0,0-1.5,1.287,5.545,5.545,0,0,0-.863,1.809,7.777,7.777,0,0,0,0,4.131,5.531,5.531,0,0,0,.863,1.818,4.358,4.358,0,0,0,1.5,1.287,4.635,4.635,0,0,0,2.2.486,3.9,3.9,0,0,0,1.62-.324,3.845,3.845,0,0,0,1.242-.882,4.533,4.533,0,0,0,.846-1.305,5.426,5.426,0,0,0,.414-1.611h1.225a6.962,6.962,0,0,1-.559,2.142,5.257,5.257,0,0,1-1.116,1.62,4.753,4.753,0,0,1-1.61,1.026,5.66,5.66,0,0,1-2.062.36,6.066,6.066,0,0,1-2.654-.549,5.505,5.505,0,0,1-1.9-1.467,6.233,6.233,0,0,1-1.134-2.124,8.71,8.71,0,0,1,0-5.076,6.341,6.341,0,0,1,1.134-2.133,5.463,5.463,0,0,1,1.9-1.476,6.433,6.433,0,0,1,4.445-.279,5.186,5.186,0,0,1,1.584.8,4.67,4.67,0,0,1,1.188,1.3,4.4,4.4,0,0,1,.6,1.782h-1.224A4.117,4.117,0,0,0,717.394,463.1Z" transform="translate(-494.393 -421.131)"/>
    <path class="cls-1" d="M720.895,464.423a6.341,6.341,0,0,1,1.134-2.133,5.463,5.463,0,0,1,1.9-1.476,6.674,6.674,0,0,1,5.3,0,5.49,5.49,0,0,1,1.89,1.476,6.344,6.344,0,0,1,1.135,2.133,8.71,8.71,0,0,1,0,5.076,6.235,6.235,0,0,1-1.135,2.124,5.533,5.533,0,0,1-1.89,1.467,6.674,6.674,0,0,1-5.3,0,5.505,5.505,0,0,1-1.9-1.467,6.233,6.233,0,0,1-1.134-2.124,8.71,8.71,0,0,1,0-5.076Zm1.125,4.6a5.514,5.514,0,0,0,.864,1.818,4.345,4.345,0,0,0,1.5,1.287,4.639,4.639,0,0,0,2.2.486,4.585,4.585,0,0,0,2.187-.486,4.387,4.387,0,0,0,1.494-1.287,5.553,5.553,0,0,0,.864-1.818,7.8,7.8,0,0,0,0-4.131,5.567,5.567,0,0,0-.864-1.809,4.386,4.386,0,0,0-1.494-1.287,4.579,4.579,0,0,0-2.187-.486,4.633,4.633,0,0,0-2.2.486,4.344,4.344,0,0,0-1.5,1.287,5.527,5.527,0,0,0-.864,1.809,7.777,7.777,0,0,0,0,4.131Z" transform="translate(-494.393 -421.131)"/>
    <path class="cls-1" d="M743.341,460.535v1.044h-4.482v11.808h-1.224V461.579h-4.464v-1.044Z" transform="translate(-494.393 -421.131)"/>
    <path class="cls-1" d="M753.349,460.535v1.044h-4.482v11.808h-1.224V461.579h-4.464v-1.044Z" transform="translate(-494.393 -421.131)"/>
    <path class="cls-1" d="M754.248,464.423a6.341,6.341,0,0,1,1.134-2.133,5.463,5.463,0,0,1,1.9-1.476,6.674,6.674,0,0,1,5.3,0,5.49,5.49,0,0,1,1.89,1.476,6.344,6.344,0,0,1,1.135,2.133,8.71,8.71,0,0,1,0,5.076,6.235,6.235,0,0,1-1.135,2.124,5.533,5.533,0,0,1-1.89,1.467,6.674,6.674,0,0,1-5.3,0,5.505,5.505,0,0,1-1.9-1.467,6.233,6.233,0,0,1-1.134-2.124,8.71,8.71,0,0,1,0-5.076Zm1.125,4.6a5.514,5.514,0,0,0,.864,1.818,4.345,4.345,0,0,0,1.5,1.287,4.639,4.639,0,0,0,2.2.486,4.585,4.585,0,0,0,2.187-.486,4.387,4.387,0,0,0,1.494-1.287,5.553,5.553,0,0,0,.864-1.818,7.8,7.8,0,0,0,0-4.131,5.567,5.567,0,0,0-.864-1.809,4.386,4.386,0,0,0-1.494-1.287,4.579,4.579,0,0,0-2.187-.486,4.633,4.633,0,0,0-2.2.486,4.344,4.344,0,0,0-1.5,1.287,5.527,5.527,0,0,0-.864,1.809,7.777,7.777,0,0,0,0,4.131Z" transform="translate(-494.393 -421.131)"/>
    <path class="cls-1" d="M769.242,460.535l7.487,10.872h.036V460.535h1.225v12.852h-1.368l-7.488-10.872H769.1v10.872h-1.224V460.535Z" transform="translate(-494.393 -421.131)"/>
  </g>
  <g>
    <path class="cls-1" d="M518.082,616.843a3.62,3.62,0,0,0,1.188,1.416,4.968,4.968,0,0,0,1.788.756,10.2,10.2,0,0,0,2.208.228,6.245,6.245,0,0,0,1.464-.191,5.086,5.086,0,0,0,1.476-.612,3.755,3.755,0,0,0,1.14-1.08,2.738,2.738,0,0,0,.456-1.6,2.336,2.336,0,0,0-.324-1.248,2.958,2.958,0,0,0-.84-.888,4.923,4.923,0,0,0-1.14-.588,11.051,11.051,0,0,0-1.224-.372l-3.816-.937a11.481,11.481,0,0,1-1.452-.479,4.136,4.136,0,0,1-1.236-.769,3.636,3.636,0,0,1-.852-1.176,4.018,4.018,0,0,1-.324-1.7,5.451,5.451,0,0,1,.24-1.464,4.07,4.07,0,0,1,.9-1.584,5.236,5.236,0,0,1,1.812-1.26,7.265,7.265,0,0,1,2.952-.517,8.629,8.629,0,0,1,2.424.336,5.97,5.97,0,0,1,2.016,1.009,4.849,4.849,0,0,1,1.9,3.983H527.2a3.973,3.973,0,0,0-.444-1.716,3.833,3.833,0,0,0-1.032-1.224,4.509,4.509,0,0,0-1.464-.744,5.944,5.944,0,0,0-1.74-.252,7.17,7.17,0,0,0-1.62.18,4.068,4.068,0,0,0-1.368.576,2.978,2.978,0,0,0-.948,1.044,3.271,3.271,0,0,0-.36,1.608,2.478,2.478,0,0,0,.2,1.044,2.207,2.207,0,0,0,.564.756,2.982,2.982,0,0,0,.828.5,6.21,6.21,0,0,0,1,.312l4.176,1.032a12.13,12.13,0,0,1,1.716.588,5.71,5.71,0,0,1,1.416.864,3.66,3.66,0,0,1,.96,1.26,4.235,4.235,0,0,1,.348,1.8,6.513,6.513,0,0,1-.06.769,3.865,3.865,0,0,1-.288,1.02,5.107,5.107,0,0,1-.648,1.093,4.075,4.075,0,0,1-1.152,1,6.644,6.644,0,0,1-1.812.721,10.608,10.608,0,0,1-2.592.275,10.822,10.822,0,0,1-2.808-.348,6.031,6.031,0,0,1-2.208-1.068,4.693,4.693,0,0,1-1.4-1.848,6.058,6.058,0,0,1-.42-2.712h1.632A4.827,4.827,0,0,0,518.082,616.843Z" transform="translate(-494.393 -421.131)"/>
    <path class="cls-1" d="M543.857,603.139v1.392h-10.2v6.192h9.552v1.392h-9.552v6.769h10.32v1.392H532.025V603.139Z" transform="translate(-494.393 -421.131)"/>
    <path class="cls-1" d="M547.889,603.139v15.744h9.6v1.392H546.257V603.139Z" transform="translate(-494.393 -421.131)"/>
    <path class="cls-1" d="M570.977,603.139v1.392h-10.2v6.192h9.552v1.392h-9.552v6.769H571.1v1.392H559.145V603.139Z" transform="translate(-494.393 -421.131)"/>
    <path class="cls-1" d="M585.2,606.559a4.826,4.826,0,0,0-1.2-1.308,5.354,5.354,0,0,0-1.56-.8,5.779,5.779,0,0,0-1.788-.275,6.186,6.186,0,0,0-2.928.647,5.819,5.819,0,0,0-2,1.716,7.408,7.408,0,0,0-1.152,2.412,10.381,10.381,0,0,0,0,5.509,7.383,7.383,0,0,0,1.152,2.424,5.8,5.8,0,0,0,2,1.716,6.186,6.186,0,0,0,2.928.647,5.208,5.208,0,0,0,2.16-.432,5.121,5.121,0,0,0,1.656-1.176,6.045,6.045,0,0,0,1.128-1.74,7.268,7.268,0,0,0,.552-2.147h1.632a9.231,9.231,0,0,1-.744,2.855,7,7,0,0,1-1.488,2.16,6.336,6.336,0,0,1-2.148,1.368,7.55,7.55,0,0,1-2.748.479,8.1,8.1,0,0,1-3.54-.731,7.356,7.356,0,0,1-2.532-1.956,8.31,8.31,0,0,1-1.512-2.832,11.617,11.617,0,0,1,0-6.769,8.448,8.448,0,0,1,1.512-2.844,7.28,7.28,0,0,1,2.532-1.968,8.573,8.573,0,0,1,5.928-.372,6.932,6.932,0,0,1,2.112,1.068,6.23,6.23,0,0,1,1.584,1.739,5.866,5.866,0,0,1,.8,2.376H585.9A5.486,5.486,0,0,0,585.2,606.559Z" transform="translate(-494.393 -421.131)"/>
    <path class="cls-1" d="M602.008,603.139v1.392h-5.976v15.744H594.4V604.53h-5.952v-1.392Z" transform="translate(-494.393 -421.131)"/>
    <path class="cls-1" d="M605.368,603.139v17.136h-1.632V603.139Z" transform="translate(-494.393 -421.131)"/>
    <path class="cls-1" d="M608.536,608.322a8.456,8.456,0,0,1,1.512-2.844,7.28,7.28,0,0,1,2.532-1.968,8.893,8.893,0,0,1,7.068,0,7.318,7.318,0,0,1,2.52,1.968,8.455,8.455,0,0,1,1.512,2.844,11.616,11.616,0,0,1,0,6.769,8.317,8.317,0,0,1-1.512,2.832,7.394,7.394,0,0,1-2.52,1.956,8.9,8.9,0,0,1-7.068,0,7.356,7.356,0,0,1-2.532-1.956,8.318,8.318,0,0,1-1.512-2.832,11.617,11.617,0,0,1,0-6.769Zm1.5,6.133a7.374,7.374,0,0,0,1.152,2.424,5.794,5.794,0,0,0,2,1.716,6.183,6.183,0,0,0,2.928.647,6.112,6.112,0,0,0,2.916-.647,5.83,5.83,0,0,0,1.992-1.716,7.393,7.393,0,0,0,1.152-2.424,10.381,10.381,0,0,0,0-5.509,7.418,7.418,0,0,0-1.152-2.412,5.851,5.851,0,0,0-1.992-1.716,6.112,6.112,0,0,0-2.916-.647,6.183,6.183,0,0,0-2.928.647,5.815,5.815,0,0,0-2,1.716,7.4,7.4,0,0,0-1.152,2.412,10.394,10.394,0,0,0,0,5.509Z" transform="translate(-494.393 -421.131)"/>
    <path class="cls-1" d="M628.527,603.139l9.984,14.5h.048v-14.5h1.632v17.136h-1.824l-9.984-14.5h-.048v14.5H626.7V603.139Z" transform="translate(-494.393 -421.131)"/>
    <path class="cls-1" d="M649.888,608.322a8.455,8.455,0,0,1,1.512-2.844,7.278,7.278,0,0,1,2.532-1.968,8.893,8.893,0,0,1,7.068,0,7.312,7.312,0,0,1,2.52,1.968,8.455,8.455,0,0,1,1.512,2.844,11.617,11.617,0,0,1,0,6.769,8.317,8.317,0,0,1-1.512,2.832,7.388,7.388,0,0,1-2.52,1.956,8.9,8.9,0,0,1-7.068,0,7.353,7.353,0,0,1-2.532-1.956,8.317,8.317,0,0,1-1.512-2.832,11.617,11.617,0,0,1,0-6.769Zm1.5,6.133a7.374,7.374,0,0,0,1.152,2.424,5.79,5.79,0,0,0,2,1.716,6.18,6.18,0,0,0,2.928.647,6.115,6.115,0,0,0,2.916-.647,5.839,5.839,0,0,0,1.992-1.716,7.372,7.372,0,0,0,1.151-2.424,10.355,10.355,0,0,0,0-5.509,7.4,7.4,0,0,0-1.151-2.412,5.86,5.86,0,0,0-1.992-1.716,6.115,6.115,0,0,0-2.916-.647,6.18,6.18,0,0,0-2.928.647,5.81,5.81,0,0,0-2,1.716,7.4,7.4,0,0,0-1.152,2.412,10.381,10.381,0,0,0,0,5.509Z" transform="translate(-494.393 -421.131)"/>
    <path class="cls-1" d="M678.951,603.139v1.392h-9.239v6.192h8.208v1.392h-8.208v8.16h-1.633V603.139Z" transform="translate(-494.393 -421.131)"/>
    <path class="cls-1" d="M698.511,603.139v1.392h-9.239v6.192h8.208v1.392h-8.208v8.16h-1.633V603.139Z" transform="translate(-494.393 -421.131)"/>
    <path class="cls-1" d="M706.047,603.139l6.72,17.136h-1.752l-2.088-5.328h-7.8l-2.064,5.328h-1.728l6.888-17.136Zm2.328,10.416-3.312-8.784-3.432,8.784Z" transform="translate(-494.393 -421.131)"/>
    <path class="cls-1" d="M721.575,603.139a10.34,10.34,0,0,1,2.076.2,5.019,5.019,0,0,1,1.752.7,3.694,3.694,0,0,1,1.212,1.3,4.395,4.395,0,0,1,.24,3.312,3.955,3.955,0,0,1-.612,1.152,3.892,3.892,0,0,1-.936.876,3.473,3.473,0,0,1-1.212.5v.048a4.044,4.044,0,0,1,2.64,1.356,4.162,4.162,0,0,1,.984,2.819,6.774,6.774,0,0,1-.072.924,4.5,4.5,0,0,1-.288,1.057,4.438,4.438,0,0,1-.624,1.067,3.7,3.7,0,0,1-1.092.925,6.6,6.6,0,0,1-1.68.647,9.856,9.856,0,0,1-2.389.252h-7.248V603.139Zm0,7.512a5.657,5.657,0,0,0,1.7-.228,3.556,3.556,0,0,0,1.2-.624,2.576,2.576,0,0,0,.72-.924,2.7,2.7,0,0,0,.24-1.128q0-3.217-3.864-3.217H715.96v6.12Zm0,8.232a9.154,9.154,0,0,0,1.729-.156,3.958,3.958,0,0,0,1.439-.563,2.892,2.892,0,0,0,.984-1.093,3.655,3.655,0,0,0,.36-1.716,2.849,2.849,0,0,0-1.164-2.483,5.728,5.728,0,0,0-3.349-.828H715.96v6.84Z" transform="translate(-494.393 -421.131)"/>
    <path class="cls-1" d="M738.184,603.139a7.45,7.45,0,0,1,2,.264,4.857,4.857,0,0,1,1.656.8,3.876,3.876,0,0,1,1.128,1.392,4.5,4.5,0,0,1,.42,2,4.816,4.816,0,0,1-.84,2.832,3.829,3.829,0,0,1-2.5,1.536v.048a3.809,3.809,0,0,1,1.392.444,2.8,2.8,0,0,1,.9.828,3.421,3.421,0,0,1,.5,1.164,8.588,8.588,0,0,1,.2,1.428q.023.432.048,1.056c.016.416.048.837.1,1.26a7.69,7.69,0,0,0,.229,1.2,2.269,2.269,0,0,0,.42.876h-1.8a2.052,2.052,0,0,1-.229-.588,5.147,5.147,0,0,1-.12-.72c-.023-.248-.044-.492-.06-.732s-.032-.447-.048-.624q-.048-.911-.156-1.812a4.984,4.984,0,0,0-.456-1.608,2.84,2.84,0,0,0-1.008-1.14,3.041,3.041,0,0,0-1.812-.384h-6.191v7.607h-1.633V603.139Zm-.12,8.136a4.368,4.368,0,0,0,1.416-.228,3.538,3.538,0,0,0,1.176-.66,3.233,3.233,0,0,0,.8-1.044,3.149,3.149,0,0,0,.3-1.4,3.377,3.377,0,0,0-.912-2.5,3.792,3.792,0,0,0-2.784-.912h-6.1v6.744Z" transform="translate(-494.393 -421.131)"/>
    <path class="cls-1" d="M748.1,603.139v17.136h-1.633V603.139Z" transform="translate(-494.393 -421.131)"/>
    <path class="cls-1" d="M763.489,606.559a4.828,4.828,0,0,0-1.2-1.308,5.351,5.351,0,0,0-1.56-.8,5.779,5.779,0,0,0-1.788-.275,6.18,6.18,0,0,0-2.928.647,5.81,5.81,0,0,0-2,1.716,7.4,7.4,0,0,0-1.152,2.412,10.381,10.381,0,0,0,0,5.509,7.374,7.374,0,0,0,1.152,2.424,5.79,5.79,0,0,0,2,1.716,6.18,6.18,0,0,0,2.928.647,5.209,5.209,0,0,0,2.16-.432,5.129,5.129,0,0,0,1.656-1.176,6.045,6.045,0,0,0,1.128-1.74,7.252,7.252,0,0,0,.552-2.147h1.632a9.258,9.258,0,0,1-.744,2.855,7.009,7.009,0,0,1-1.487,2.16,6.334,6.334,0,0,1-2.148,1.368,7.55,7.55,0,0,1-2.748.479,8.1,8.1,0,0,1-3.54-.731,7.353,7.353,0,0,1-2.532-1.956,8.317,8.317,0,0,1-1.512-2.832,11.616,11.616,0,0,1,0-6.769,8.455,8.455,0,0,1,1.512-2.844,7.278,7.278,0,0,1,2.532-1.968,8.571,8.571,0,0,1,5.928-.372,6.923,6.923,0,0,1,2.112,1.068,6.223,6.223,0,0,1,1.584,1.739,5.865,5.865,0,0,1,.8,2.376H764.2A5.475,5.475,0,0,0,763.489,606.559Z" transform="translate(-494.393 -421.131)"/>
    <path class="cls-1" d="M587.26,631.938l6.72,17.136h-1.752l-2.088-5.328h-7.8l-2.064,5.328h-1.728l6.888-17.136Zm2.328,10.416-3.312-8.784-3.432,8.784Z" transform="translate(-494.393 -421.131)"/>
    <path class="cls-1" d="M597.34,631.938l9.984,14.5h.048v-14.5H609v17.136H607.18l-9.984-14.5h-.048v14.5h-1.632V631.938Z" transform="translate(-494.393 -421.131)"/>
    <path class="cls-1" d="M618.364,631.938a8.009,8.009,0,0,1,5.892,2.2q1.98,2.1,1.98,6.372t-1.98,6.372a8.008,8.008,0,0,1-5.892,2.2h-5.928V631.938Zm-.816,15.744a11.219,11.219,0,0,0,3.18-.4,5.082,5.082,0,0,0,2.2-1.26,5.185,5.185,0,0,0,1.272-2.231,13.447,13.447,0,0,0,0-6.576,5.183,5.183,0,0,0-1.272-2.232,5.082,5.082,0,0,0-2.2-1.26,11.254,11.254,0,0,0-3.18-.4h-3.48v14.353Z" transform="translate(-494.393 -421.131)"/>
    <path class="cls-1" d="M647.284,631.938v1.392h-5.977v15.744h-1.632V633.33h-5.952v-1.392Z" transform="translate(-494.393 -421.131)"/>
    <path class="cls-1" d="M656.74,631.938a7.455,7.455,0,0,1,2,.264,4.843,4.843,0,0,1,1.655.8,3.866,3.866,0,0,1,1.128,1.392,4.482,4.482,0,0,1,.421,2,4.809,4.809,0,0,1-.841,2.832,3.825,3.825,0,0,1-2.5,1.536v.048a3.809,3.809,0,0,1,1.392.444,2.8,2.8,0,0,1,.9.828,3.421,3.421,0,0,1,.5,1.164,8.691,8.691,0,0,1,.2,1.428q.023.432.048,1.056c.016.416.048.837.1,1.26a7.806,7.806,0,0,0,.228,1.2,2.283,2.283,0,0,0,.421.876h-1.8a2.081,2.081,0,0,1-.228-.588,5.147,5.147,0,0,1-.12-.72q-.037-.372-.06-.732t-.049-.624q-.048-.911-.155-1.812a4.984,4.984,0,0,0-.456-1.608,2.835,2.835,0,0,0-1.009-1.14,3.038,3.038,0,0,0-1.812-.384h-6.192v7.607h-1.632V631.938Zm-.12,8.136a4.373,4.373,0,0,0,1.416-.228,3.538,3.538,0,0,0,1.176-.66,3.233,3.233,0,0,0,.8-1.044,3.149,3.149,0,0,0,.3-1.4,3.376,3.376,0,0,0-.911-2.5,3.792,3.792,0,0,0-2.784-.912h-6.1v6.744Z" transform="translate(-494.393 -421.131)"/>
    <path class="cls-1" d="M666.652,631.938v17.136H665.02V631.938Z" transform="translate(-494.393 -421.131)"/>
    <path class="cls-1" d="M672.58,631.938l5.688,15.024,5.9-15.024h2.4v17.136H684.94V634.267h-.049l-5.855,14.808H677.5l-5.64-14.808h-.049v14.808H670.18V631.938Z" transform="translate(-494.393 -421.131)"/>
    <path class="cls-1" d="M691.108,645.643a3.619,3.619,0,0,0,1.188,1.416,4.961,4.961,0,0,0,1.788.756,10.2,10.2,0,0,0,2.208.228,6.239,6.239,0,0,0,1.464-.191,5.089,5.089,0,0,0,1.477-.612,3.748,3.748,0,0,0,1.14-1.08,2.738,2.738,0,0,0,.456-1.6,2.341,2.341,0,0,0-.324-1.248,2.958,2.958,0,0,0-.84-.888,4.909,4.909,0,0,0-1.14-.588,11.066,11.066,0,0,0-1.225-.372l-3.815-.937a11.488,11.488,0,0,1-1.452-.479,4.124,4.124,0,0,1-1.236-.769,3.643,3.643,0,0,1-.852-1.176,4.025,4.025,0,0,1-.324-1.7,5.434,5.434,0,0,1,.24-1.464,4.068,4.068,0,0,1,.9-1.584,5.238,5.238,0,0,1,1.813-1.26,7.264,7.264,0,0,1,2.952-.517,8.631,8.631,0,0,1,2.424.336,5.979,5.979,0,0,1,2.016,1.009,4.855,4.855,0,0,1,1.9,3.983h-1.632a3.98,3.98,0,0,0-.444-1.716,3.827,3.827,0,0,0-1.032-1.224,4.514,4.514,0,0,0-1.464-.744,5.943,5.943,0,0,0-1.74-.252,7.183,7.183,0,0,0-1.62.18,4.062,4.062,0,0,0-1.367.576,2.979,2.979,0,0,0-.948,1.044,3.271,3.271,0,0,0-.36,1.608,2.486,2.486,0,0,0,.2,1.044,2.2,2.2,0,0,0,.564.756,2.97,2.97,0,0,0,.827.5,6.241,6.241,0,0,0,1,.312l4.177,1.032a12.123,12.123,0,0,1,1.716.588,5.7,5.7,0,0,1,1.416.864,3.654,3.654,0,0,1,.96,1.26,4.235,4.235,0,0,1,.348,1.8,6.712,6.712,0,0,1-.06.769,3.886,3.886,0,0,1-.288,1.02,5.087,5.087,0,0,1-.648,1.093,4.086,4.086,0,0,1-1.151,1,6.654,6.654,0,0,1-1.812.721,10.608,10.608,0,0,1-2.592.275,10.818,10.818,0,0,1-2.808-.348,6.023,6.023,0,0,1-2.208-1.068,4.69,4.69,0,0,1-1.4-1.848,6.058,6.058,0,0,1-.42-2.712H690.7A4.814,4.814,0,0,0,691.108,645.643Z" transform="translate(-494.393 -421.131)"/>
  </g>
</svg>
