<svg id="Layer_1" data-name="Layer 1" xmlns="http://www.w3.org/2000/svg" viewBox="0 0 400.321 400.255">
  <defs>
    <style>
      .cls-1 {
        fill: #177071;
      }
    </style>
  </defs>
  <title>Quality control</title>
  <g>
    <path class="cls-1" d="M859.13,336.01c12.25,16.37,11.09,36.52-3.22,50.86-41.89,41.99-79.03,87.98-114.42,135.43a13.886,13.886,0,0,0-2.18,7.81q-.18,85.485-.13,170.98a43.571,43.571,0,0,1-.83,9.42c-1.8,8.06-7.78,12.59-16.26,12.6q-118.485.015-236.97,0c-9.98,0-16.35-6-17.29-16.21-.14-1.49-.09-2.99-.09-4.49q-.015-147.24.06-294.47a32.585,32.585,0,0,1,1.82-11.19c2.37-6.3,7.11-9.68,14.21-9.67q119.49.075,238.97.05c8.53,0,14.5,4.89,15.71,13.62.89,6.38.74,12.91,1.11,20.68,5.41-6.5,9.89-12.25,14.75-17.66,21.13-23.57,42.16-47.23,63.64-70.47C831.24,318.98,847.41,320.36,859.13,336.01Zm-6,48.45c12.51-12.54,14.16-29.24,4.53-44.18-10.24-15.9-24.81-17.62-37.61-3.87q-28.08,30.18-55.47,61.01c-9.71,10.92-18.76,22.42-28.53,34.17a9.782,9.782,0,0,1-.37-1.28c-.04-8-.02-15.99-.12-23.99-.13-11.08-4.8-15.66-15.87-15.66q-93.48-.015-186.95-.01c-16,0-31.99-.03-47.99.03-7.13.03-11.15,3.21-12.75,10.16a31.556,31.556,0,0,0-.5,6.95q-.045,147.21-.02,294.42a46.255,46.255,0,0,0,.1,5c.81,7.52,5.56,12.15,12.6,12.15q119.22.03,238.44,0c6.15,0,10.21-2.81,11.85-8.66a35.429,35.429,0,0,0,1.07-9.37q.075-86.22.12-172.45c0-2.5.45-5.51,1.87-7.41C773.3,473.47,810.76,426.9,853.13,384.46Z" transform="translate(-467.479 -323.113)"/>
    <path class="cls-1" d="M710.16,460.33c9.06-11.98,14.79-23.63,14.29-37.83l2.97-.06c.04,2.81.13,5.62.32,8.41.57,8.35-2.3,14.57-7.12,21.3-23.75,33.15-46.86,66.77-70.2,100.22-2.45,3.51-4.92,7-7.69,10.96-5.72-5.73-10.9-11.09-16.26-16.28-13.39-12.98-26.41-26.39-40.42-38.66-13.19-11.56-28.59-19.29-46.37-21.73-17.3-2.38-28.92,5.93-30.97,23.48a47.2,47.2,0,0,0,1.02,16.28c2.19,9.12,8.22,13.54,17.65,14.03,13.97.73,26.1,6.14,37.21,14.26,16.96,12.41,30.21,28.56,44.35,43.84,8.13,8.8,16.43,17.49,25.2,25.64,9.32,8.65,19.2,8.18,28.38-.62a55.839,55.839,0,0,0,6.35-7.68q27.09-37.455,54.08-74.97c1.16-1.61,2.38-3.18,4.18-5.57V707.97H479.72V698.9h2.98c0,4.79,1.36,6.05,6.13,6.04q114.465-.225,228.94-.12c1.92,0,3.85-.17,5.6-.25V546.71c-1.68,2.25-2.7,3.55-3.67,4.9q-23.805,33.045-47.61,66.08a63.753,63.753,0,0,1-7.71,9.14c-9.95,9.32-21.52,9.61-31.91.83a151.758,151.758,0,0,1-12.71-12c-9.12-9.72-17.59-20.08-27.08-29.4-11.13-10.94-22.65-21.58-34.79-31.36-8.51-6.86-18.99-10.23-30.14-10.71-11.32-.48-18.98-6.12-21.7-17.11a50.594,50.594,0,0,1-1.2-15.81c1.55-19.92,14.89-30.52,34.41-28.26,18.18,2.11,33.89,9.87,47.6,21.38,11.84,9.94,22.74,21,34,31.63,7.25,6.85,14.39,13.83,21.89,21.04,1.48-2.15,3.14-4.6,4.83-7.04C668.31,520.03,688.19,489.39,710.16,460.33Z" transform="translate(-467.479 -323.113)"/>
    <path class="cls-1" d="M482.7,698.85v.05h-2.98V401.89H727.59c0,6.91-.25,13.75-.17,20.55l-2.97.06a51.323,51.323,0,0,0-.46-5.29c-.52-3.83-.07-7.79-.07-11.58H482.82v5.8Q482.805,555.13,482.7,698.85Z" transform="translate(-467.479 -323.113)"/>
  </g>
</svg>
