<svg id="Layer_1" data-name="Layer 1" xmlns="http://www.w3.org/2000/svg" viewBox="0 0 459.713 429.146">
  <defs>
    <style>
      .cls-1 {
        fill: #177071;
      }
    </style>
  </defs>
  <title>Sampling</title>
  <path class="cls-1" d="M841.04,455.68c1.7,5.37-.75,7.68-4.55,10.24-18.83,12.72-37.42,25.8-56.42,38.25-5.83,3.82-7.79,8.16-7.76,14.98.23,64.74.14,129.48.14,194.21,0,11.47-.01,11.47-11.84,11.47H613.17v-.2c-50.2,0-100.4-.16-150.6.17-7.37.05-8.7-2.56-8.68-9.18.21-65.53.03-131.06.27-196.59.03-6.85-1.98-11.13-7.83-14.91-19.31-12.46-38.12-25.7-57.42-38.17-6.1-3.94-7.86-7.79-5.56-14.95q23.67-73.515,46.6-147.28c1.7-5.42,4.35-7.58,10.14-7.54,32.76.23,65.53-.1,98.29.39,3.94.06,9.25,2.92,11.53,6.16,30.65,43.65,86.73,43.86,117.84.48,2.48-3.47,8.12-6.54,12.35-6.6,34.6-.53,69.22-.22,103.84-.41,5.22-.02,7.69,2.25,9.12,6.82Q816.955,379.385,841.04,455.68Zm-13.18,4.57c3.54-2.4,5.95-4.58,4.34-9.62q-22.365-70.185-44.35-140.5c-1.47-4.69-3.94-6.67-9.11-6.64-32.23.22-64.46-.03-96.69.33a14.087,14.087,0,0,0-9.75,4.78c-33.6,43.9-91.21,44.27-125.03.39-3.12-4.04-6.36-5.5-11.31-5.47-30.12.17-60.24.23-90.35-.04-6.13-.06-8.84,2.12-10.6,7.9-13.91,45.72-27.93,91.4-42.44,136.92-2.09,6.56-.35,9.42,4.75,12.79,19.41,12.79,38.44,26.17,57.92,38.84,6.46,4.2,9.08,8.92,9.04,16.78-.32,62.61-.05,125.23-.35,187.84-.04,7.96,2.11,10.44,10.22,10.38,46.23-.35,92.46-.17,138.7-.17s92.46,0,138.69-.01c11.01,0,11.02-.01,11.02-10.85,0-63.14.09-126.28-.15-189.42-.02-6.84,2.05-11.16,7.82-14.97C789.62,486.69,808.64,473.32,827.86,460.25Z" transform="translate(-382.126 -295.933)"/>
  <g>
    <path class="cls-1" d="M536.672,480.609a6.273,6.273,0,0,0,2.06,2.456,8.593,8.593,0,0,0,3.1,1.311,17.686,17.686,0,0,0,3.829.4,10.827,10.827,0,0,0,2.539-.333,8.828,8.828,0,0,0,2.56-1.062,6.515,6.515,0,0,0,1.977-1.873,4.75,4.75,0,0,0,.791-2.768,4.058,4.058,0,0,0-.562-2.165,5.146,5.146,0,0,0-1.457-1.54,8.623,8.623,0,0,0-1.977-1.02,19.476,19.476,0,0,0-2.123-.645l-6.618-1.624a19.717,19.717,0,0,1-2.518-.832,7.154,7.154,0,0,1-2.144-1.332,6.31,6.31,0,0,1-1.478-2.04,6.974,6.974,0,0,1-.562-2.955,9.422,9.422,0,0,1,.417-2.539,7.044,7.044,0,0,1,1.561-2.747,9.1,9.1,0,0,1,3.143-2.186,12.6,12.6,0,0,1,5.119-.895,14.952,14.952,0,0,1,4.2.583,10.375,10.375,0,0,1,3.5,1.748,8.416,8.416,0,0,1,3.288,6.909h-2.831a6.89,6.89,0,0,0-.77-2.976,6.657,6.657,0,0,0-1.79-2.123,7.834,7.834,0,0,0-2.539-1.29,10.3,10.3,0,0,0-3.017-.437,12.457,12.457,0,0,0-2.81.312,7.029,7.029,0,0,0-2.373,1,5.165,5.165,0,0,0-1.644,1.811,5.681,5.681,0,0,0-.624,2.789,4.3,4.3,0,0,0,.354,1.811,3.815,3.815,0,0,0,.978,1.311,5.164,5.164,0,0,0,1.436.874,10.89,10.89,0,0,0,1.727.541l7.242,1.79a20.965,20.965,0,0,1,2.976,1.02,9.865,9.865,0,0,1,2.456,1.5,6.341,6.341,0,0,1,1.665,2.186,7.335,7.335,0,0,1,.6,3.122,11.4,11.4,0,0,1-.1,1.332,6.745,6.745,0,0,1-.5,1.769,8.828,8.828,0,0,1-1.124,1.894,7.073,7.073,0,0,1-2,1.728,11.581,11.581,0,0,1-3.143,1.249,18.375,18.375,0,0,1-4.5.479,18.75,18.75,0,0,1-4.87-.6,10.472,10.472,0,0,1-3.829-1.852,8.152,8.152,0,0,1-2.435-3.2,10.5,10.5,0,0,1-.728-4.7h2.83A8.362,8.362,0,0,0,536.672,480.609Z" transform="translate(-382.126 -295.933)"/>
    <path class="cls-1" d="M572.716,456.843l11.654,29.718h-3.038l-3.621-9.24H564.184l-3.58,9.24h-3l11.945-29.718Zm4.037,18.064-5.744-15.233-5.952,15.233Z" transform="translate(-382.126 -295.933)"/>
    <path class="cls-1" d="M591.154,456.843l9.864,26.055,10.238-26.055h4.162v29.718h-2.83v-25.68h-.082l-10.156,25.68h-2.664l-9.781-25.68h-.083v25.68h-2.83V456.843Z" transform="translate(-382.126 -295.933)"/>
    <path class="cls-1" d="M634.44,456.843a11.02,11.02,0,0,1,3.621.562,7.637,7.637,0,0,1,2.789,1.665,7.366,7.366,0,0,1,1.789,2.685,10.562,10.562,0,0,1,0,7.159,7.357,7.357,0,0,1-1.789,2.685,7.63,7.63,0,0,1-2.789,1.665,11.02,11.02,0,0,1-3.621.562H624.077v12.736h-2.83V456.843Zm-.624,14.568a7.317,7.317,0,0,0,4.786-1.5,6.638,6.638,0,0,0,0-9.157,7.317,7.317,0,0,0-4.786-1.5h-9.739v12.154Z" transform="translate(-382.126 -295.933)"/>
    <path class="cls-1" d="M650.3,456.843v27.3h16.648v2.414H647.467V456.843Z" transform="translate(-382.126 -295.933)"/>
    <path class="cls-1" d="M690.335,456.843v2.414H672.646V470h16.565v2.414H672.646v11.737h17.9v2.414H669.816V456.843Z" transform="translate(-382.126 -295.933)"/>
  </g>
  <g id="_Group_" data-name="&lt;Group&gt;">
    <g>
      <path class="cls-1" d="M796.568,447.02l2.113,6.236,1.056,3.118a15.7,15.7,0,0,1,.88,3.176,4.575,4.575,0,0,1-.72,3.175,8.82,8.82,0,0,1-2.4,2.254c-1.836,1.211-3.7,2.358-5.553,3.541l-.077-.121c1.852-1.176,3.729-2.322,5.56-3.522a8.707,8.707,0,0,0,2.377-2.215,4.463,4.463,0,0,0,.711-3.1,14.97,14.97,0,0,0-.874-3.153l-1.066-3.115-2.132-6.229Z" transform="translate(-382.126 -295.933)"/>
      <polygon class="cls-1" points="397.176 180.657 384.536 188.728 384.412 188.533 397.075 180.5 397.176 180.657"/>
      <path class="cls-1" d="M753.958,492.636l-3.2,1.967a22.732,22.732,0,0,0-3.061,2.121,11.381,11.381,0,0,0-2.4,2.794,10.69,10.69,0,0,0-1.283,3.448l-.312-.061a11,11,0,0,1,1.331-3.545,11.683,11.683,0,0,1,2.475-2.862,23.019,23.019,0,0,1,3.1-2.139l3.2-1.957Z" transform="translate(-382.126 -295.933)"/>
      <polygon class="cls-1" points="361.663 221.986 361.723 236.987 361.319 236.988 361.302 221.987 361.663 221.986"/>
      <polygon class="cls-1" points="361.771 251.988 361.81 266.989 361.316 266.989 361.323 251.989 361.771 251.988"/>
      <polygon class="cls-1" points="361.842 281.99 361.868 296.991 361.277 296.99 361.3 281.99 361.842 281.99"/>
      <polygon class="cls-1" points="361.889 311.991 361.909 326.992 361.221 326.991 361.25 311.991 361.889 311.991"/>
      <polygon class="cls-1" points="361.929 341.992 361.951 356.992 361.165 356.992 361.192 341.992 361.929 341.992"/>
      <path class="cls-1" d="M737.984,664.43c-5.026.079-10.008.041-15.013.063v-.883c4.995-.005,10.011.048,14.984-.014Z" transform="translate(-382.126 -295.933)"/>
      <polygon class="cls-1" points="325.846 368.557 310.847 368.541 310.847 367.695 325.846 367.678 325.846 368.557"/>
      <polygon class="cls-1" points="295.848 368.524 280.848 368.508 280.848 367.728 295.848 367.711 295.848 368.524"/>
      <polygon class="cls-1" points="265.849 368.491 250.849 368.475 250.849 367.761 265.849 367.744 265.849 368.491"/>
      <polygon class="cls-1" points="235.849 368.459 230.419 368.453 230.084 368.452 230.084 368.118 230.084 367.965 230.419 368.299 221.002 368.287 221.002 367.638 230.419 367.63 230.753 367.629 230.753 367.965 230.754 368.118 230.419 367.783 235.849 367.777 235.849 368.459"/>
      <polygon class="cls-1" points="206.002 368.262 191.002 368.233 191.002 367.653 206.002 367.646 206.002 368.262"/>
      <polygon class="cls-1" points="176.002 368.207 161.002 368.19 161.002 367.683 176.002 367.664 176.002 368.207"/>
      <polygon class="cls-1" points="146.003 368.186 131.003 368.202 131.002 367.768 146.002 367.716 146.003 368.186"/>
      <path class="cls-1" d="M498.13,664.175l-7.5.032c-1.249-.007-2.5.047-3.765-.045a7.489,7.489,0,0,1-3.656-1.053l.207-.3a7.153,7.153,0,0,0,3.477.98c1.231.087,2.484.031,3.736.035l7.5-.05Z" transform="translate(-382.126 -295.933)"/>
      <polygon class="cls-1" points="99.143 352.577 99.185 337.577 99.494 337.577 99.469 352.577 99.143 352.577"/>
      <polygon class="cls-1" points="99.192 322.577 99.189 307.577 99.555 307.577 99.529 322.577 99.192 322.577"/>
      <polygon class="cls-1" points="99.182 292.577 99.173 277.577 99.596 277.577 99.576 292.577 99.182 292.577"/>
      <polygon class="cls-1" points="99.168 262.577 99.169 247.577 99.649 247.577 99.619 262.577 99.168 262.577"/>
      <polygon class="cls-1" points="99.181 232.577 99.207 217.576 99.744 217.578 99.689 232.578 99.181 232.577"/>
      <path class="cls-1" d="M479.463,499.041a11.9,11.9,0,0,0-2.543-2.616,31.511,31.511,0,0,0-3.115-2.024l-6.418-3.892.321-.523,6.4,3.907a32.022,32.022,0,0,1,3.166,2.072,12.478,12.478,0,0,1,2.657,2.752Z" transform="translate(-382.126 -295.933)"/>
      <polygon class="cls-1" points="72.514 186.664 59.796 178.718 60.164 178.128 72.861 186.11 72.514 186.664"/>
      <path class="cls-1" d="M429.142,466.81c-1.062-.648-2.164-1.266-3.2-2.027a10.727,10.727,0,0,1-2.711-2.757,6.819,6.819,0,0,1-1.083-3.755,12.355,12.355,0,0,1,.668-3.8l.739.237a11.606,11.606,0,0,0-.641,3.558,6.049,6.049,0,0,0,.955,3.351,10,10,0,0,0,2.517,2.563c.98.729,2.061,1.341,3.132,2Z" transform="translate(-382.126 -295.933)"/>
      <polygon class="cls-1" points="45.566 144.343 50.416 130.148 51.227 130.426 46.338 144.609 45.566 144.343"/>
      <rect class="cls-1" x="432.711" y="404.472" width="15.001" height="0.902" transform="translate(-466.947 395.504) rotate(-71.231)"/>
      <rect class="cls-1" x="442.34" y="376.052" width="15" height="0.914" transform="translate(-432.878 386.391) rotate(-71.35)"/>
      <polygon class="cls-1" points="74.464 59.107 79.246 44.879 80.12 45.193 75.339 59.401 74.464 59.107"/>
      <polygon class="cls-1" points="92.173 39.142 107.17 39.182 107.169 40.122 92.168 40.076 92.173 39.142"/>
      <rect class="cls-1" x="122.17" y="39.189" width="15" height="0.949"/>
      <polygon class="cls-1" points="152.173 39.244 167.176 39.38 167.164 40.343 152.168 40.201 152.173 39.244"/>
      <path class="cls-1" d="M562.341,342.157A65.935,65.935,0,0,0,572.919,352.6l-.6.768a66.906,66.906,0,0,1-10.73-10.6Z" transform="translate(-382.126 -295.933)"/>
      <path class="cls-1" d="M585.638,360.256a57.972,57.972,0,0,0,14.215,4.244l-.158.973a58.956,58.956,0,0,1-14.455-4.321Z" transform="translate(-382.126 -295.933)"/>
      <path class="cls-1" d="M614.676,364.962a57.84,57.84,0,0,0,14.448-3.352l.348.935a58.837,58.837,0,0,1-14.7,3.4Z" transform="translate(-382.126 -295.933)"/>
      <path class="cls-1" d="M642.29,354.761a64.915,64.915,0,0,0,11.19-9.778l.672.61a65.85,65.85,0,0,1-11.314,9.963Z" transform="translate(-382.126 -295.933)"/>
      <path class="cls-1" d="M665.2,335.759a11.536,11.536,0,0,1,1.919-.31c.669-.04,1.265-.022,1.9-.035l3.75-.035,7.5-.069.007.792-7.5.1-3.749.049c-.616.015-1.271,0-1.849.04a10.683,10.683,0,0,0-1.777.295Z" transform="translate(-382.126 -295.933)"/>
      <polygon class="cls-1" points="313.142 39.321 328.142 39.322 328.142 39.997 313.145 40.054 313.142 39.321"/>
      <polygon class="cls-1" points="343.141 39.347 358.14 39.363 358.141 39.923 343.141 39.965 343.141 39.347"/>
      <path class="cls-1" d="M755.3,335.45a6.649,6.649,0,0,1,3.467,1.648,8.234,8.234,0,0,1,1.994,3.268l2.387,7.118-.432.145-2.405-7.1a7.761,7.761,0,0,0-1.88-3.074,6.14,6.14,0,0,0-3.218-1.51Z" transform="translate(-382.126 -295.933)"/>
      <polygon class="cls-1" points="385.784 65.775 390.543 80 390.198 80.116 385.396 65.906 385.784 65.775"/>
      <polygon class="cls-1" points="395.306 94.223 400.075 108.444 399.817 108.53 395.005 94.324 395.306 94.223"/>
      <polygon class="cls-1" points="404.853 122.662 409.641 136.876 409.47 136.934 404.638 122.734 404.853 122.662"/>
    </g>
  </g>
</svg>
