<svg id="Layer_1" data-name="Layer 1" xmlns="http://www.w3.org/2000/svg" viewBox="0 0 511.793 511.897">
  <defs>
    <style>
      .cls-1 {
        fill: #fff;
      }

      .cls-2 {
        fill: #177071;
      }
    </style>
  </defs>
  <title>shipping</title>
  <g>
    <path class="cls-1" d="M385.041,769V257.1H896.834V769Zm222.9-253.6c6.384,24.748,12.6,49.066,19.039,73.326.413,1.556,2.3,2.969,3.833,3.934,5.88,3.716,12.151,6.867,17.75,10.951,2.985,2.177,5.248,2.937,8.882,1.91q80.407-22.717,160.9-45.142L864.9,547.337l-24.881-96.873Zm-4.374-17.174L758.259,454.95l-24.873-96.913-154.714,43.27Zm-5.516,88.567c-.158-.849-.3-1.984-.583-3.084Q563.216,450.08,529,316.446c-.85-3.326-2.238-4.58-5.772-4.527-13.322.2-26.65.007-39.975.133A11.727,11.727,0,0,1,474.853,309a17.622,17.622,0,0,0-9.88-3.824c-10.472-.479-20.98-.256-31.473-.149a16.257,16.257,0,0,0-16.393,16.084c-.3,8.846,5.935,16.554,14.8,16.945,11.458.506,22.964.387,34.427-.045,3.046-.115,7.318-1.53,8.76-3.793,3.8-5.956,9.03-5.642,14.681-5.409a91.964,91.964,0,0,0,10.489-.029c3.518-.258,5.125.732,6.089,4.516Q534.5,443.759,562.98,554.135c3.423,13.322,6.849,26.644,10.189,39.637Zm62.512,75.984c-.572-4.444-.86-8.946-1.76-13.321-6.7-32.571-39.467-52.586-70.349-43.077-27.946,8.6-45.38,38.96-39.044,67.983,5.858,26.835,27.644,46.128,52.672,46.642C634.4,721.662,660.07,695.957,660.563,662.772Zm16.239-6.5,186.083-52.053-7.727-25.951L670.1,630.014Z" transform="translate(-385.041 -257.103)"/>
    <path class="cls-2" d="M607.941,515.4l232.081-64.931L864.9,547.337l-46.561,13.039q-80.46,22.528-160.9,45.142c-3.634,1.027-5.9.267-8.882-1.91-5.6-4.084-11.87-7.235-17.75-10.951-1.528-.966-3.42-2.379-3.833-3.934C620.545,564.462,614.325,540.144,607.941,515.4Z" transform="translate(-385.041 -257.103)"/>
    <path class="cls-2" d="M603.567,498.222l-24.9-96.915,154.714-43.27,24.873,96.913Z" transform="translate(-385.041 -257.103)"/>
    <path class="cls-2" d="M598.051,586.789l-24.882,6.983c-3.34-12.993-6.766-26.315-10.189-39.637Q534.609,443.73,506.349,333.3c-.964-3.785-2.571-4.774-6.089-4.516a91.964,91.964,0,0,1-10.489.029c-5.65-.233-10.885-.548-14.681,5.409-1.442,2.263-5.714,3.678-8.76,3.793-11.463.432-22.97.551-34.427.045-8.861-.391-15.092-8.1-14.8-16.945A16.257,16.257,0,0,1,433.5,305.027c10.493-.107,21-.329,31.473.149a17.622,17.622,0,0,1,9.88,3.824,11.727,11.727,0,0,0,8.406,3.052c13.324-.125,26.652.069,39.975-.133,3.535-.054,4.922,1.2,5.772,4.527Q563.157,450.1,597.468,583.7C597.75,584.8,597.893,585.94,598.051,586.789Z" transform="translate(-385.041 -257.103)"/>
    <path class="cls-2" d="M660.563,662.772C660.07,695.957,634.4,721.662,602.081,721c-25.028-.514-46.814-19.806-52.672-46.642-6.335-29.023,11.1-59.378,39.044-67.983,30.882-9.508,63.646,10.506,70.349,43.077C659.7,653.827,659.991,658.329,660.563,662.772Zm-56.546,25.719c13.179.359,24.079-10.476,24.5-24.353.413-13.622-10.045-25.141-23.258-25.616-13.348-.48-24.47,10.564-24.776,24.6C580.185,676.742,590.749,688.129,604.017,688.491Z" transform="translate(-385.041 -257.103)"/>
    <path class="cls-2" d="M676.8,656.269l-6.7-26.256,185.061-51.748,7.727,25.951Z" transform="translate(-385.041 -257.103)"/>
    <path class="cls-1" d="M604.017,688.491c-13.268-.362-23.832-11.749-23.535-25.367.307-14.038,11.429-25.082,24.776-24.6,13.213.475,23.671,11.994,23.258,25.616C628.1,678.015,617.2,688.851,604.017,688.491Z" transform="translate(-385.041 -257.103)"/>
  </g>
</svg>
